<svg xmlns="http://www.w3.org/2000/svg" xmlns:xlink="http://www.w3.org/1999/xlink" viewBox="0 0 487.52 752"><defs><style>.cls-1{isolation:isolate;}.cls-2{fill:url(#linear-gradient);}.cls-3{fill:#dbd9db;}.cls-12,.cls-20,.cls-4{fill:#c9c9c9;}.cls-11,.cls-13,.cls-4,.cls-5,.cls-7{opacity:0.3;}.cls-5,.cls-6{fill:#cbcbcb;}.cls-12,.cls-6{opacity:0.4;}.cls-7{fill:#d8d8d8;}.cls-13,.cls-7,.cls-8{mix-blend-mode:overlay;}.cls-13,.cls-8{fill:#d4d4d4;}.cls-8{opacity:0.2;}.cls-9{fill:#e9e9e9;}.cls-10{fill:#f0f0f0;}.cls-11{fill:#cecece;}.cls-14,.cls-18,.cls-19{opacity:0.6;}.cls-14{fill:url(#radial-gradient);}.cls-15{fill:#f8b052;}.cls-16{fill:#ffd26e;}.cls-17{fill:#fff;}.cls-18{fill:url(#radial-gradient-2);}.cls-19{fill:url(#radial-gradient-3);}.cls-20{opacity:0.8;}.cls-21{fill:none;stroke:#e9e9e9;stroke-miterlimit:10;}.cls-22{fill:#747fa8;}.cls-23{fill:#b9d68e;}</style><linearGradient id="linear-gradient" x1="243.5" y1="752" x2="243.5" gradientUnits="userSpaceOnUse"><stop offset="0.41" stop-color="#b0e0ff"/><stop offset="1" stop-color="#10497d"/></linearGradient><radialGradient id="radial-gradient" cx="260.73" cy="377.46" r="10" gradientUnits="userSpaceOnUse"><stop offset="0" stop-color="#ffc36c"/><stop offset="0.05" stop-color="#ffc36c" stop-opacity="0.93"/><stop offset="0.26" stop-color="#ffc36c" stop-opacity="0.65"/><stop offset="0.45" stop-color="#ffc36c" stop-opacity="0.42"/><stop offset="0.63" stop-color="#ffc36c" stop-opacity="0.24"/><stop offset="0.78" stop-color="#ffc36c" stop-opacity="0.11"/><stop offset="0.91" stop-color="#ffc36c" stop-opacity="0.03"/><stop offset="1" stop-color="#ffc36c" stop-opacity="0"/></radialGradient><radialGradient id="radial-gradient-2" cx="210.52" cy="368.42" r="10" xlink:href="#radial-gradient"/><radialGradient id="radial-gradient-3" cx="354.84" cy="408.95" r="10" xlink:href="#radial-gradient"/></defs><title>Artboard 1</title><g class="cls-1"><g id="Layer_1" data-name="Layer 1"><rect class="cls-2" width="487" height="752"/><polygon class="cls-3" points="487 752 487 532.12 487 477.71 371.09 401.91 300.22 355.69 246.17 298.86 180.31 363.65 124.67 401.91 62.83 448.14 0 477.71 0 668.86 0 752 487 752"/><polygon class="cls-4" points="278.99 430.57 272.06 436.97 259.11 457.69 250.16 445.91 236.31 465.19 285.17 449.11 278.99 430.57"/><polygon class="cls-5" points="169.3 439.13 167.43 459.01 148.32 486.81 155.67 453 169.3 439.13"/><polygon class="cls-6" points="177.04 430.13 167.05 405.69 153.35 454.22 177.04 430.13"/><polygon class="cls-7" points="167.05 405.69 141.74 419.39 141.74 428.22 162.28 422.61 167.05 405.69"/><polygon class="cls-4" points="130.29 421.05 130.29 435.44 93.54 469.54 107.56 441.88 130.29 421.05"/><polygon class="cls-4" points="285.17 449.11 301.6 482.37 308.43 513.39 277.94 465.19 285.17 449.11"/><polygon class="cls-8" points="285.17 449.11 277.94 465.19 254.27 495.25 259.11 457.69 285.17 449.11"/><polygon class="cls-5" points="373.53 449.46 373.53 469.54 407.63 510.7 464 569.14 455.36 514.82 373.53 449.46"/><polygon class="cls-5" points="288.91 437.43 314.48 462.21 319.39 486.57 301.6 482.37 285.17 449.11 282.54 441.22 288.91 437.43"/><polygon class="cls-9" points="246.18 299.19 255.31 325.5 258.69 312.35 246.18 299.19"/><polygon class="cls-9" points="246.18 299.19 237.65 307.58 237.65 320.16 249.82 309.68 246.18 299.19"/><polygon class="cls-9" points="237.65 307.58 237.65 320.16 227.26 328.17 229.97 315.13 237.65 307.58"/><polygon class="cls-10" points="249.82 309.68 237.65 320.16 251.03 344.74 255.31 325.5 249.82 309.68"/><polygon class="cls-9" points="258.69 312.35 272.83 327.21 274.45 343.17 255.31 325.5 258.69 312.35"/><polygon class="cls-10" points="227.26 328.17 201.47 343.17 218.6 326.32 229.97 315.13 227.26 328.17"/><polygon class="cls-9" points="227.26 328.17 227.79 363.84 251.03 344.74 237.65 320.16 227.26 328.17"/><polygon class="cls-10" points="274.45 343.17 287.29 348.23 281.88 336.73 272.83 327.21 274.45 343.17"/><polygon class="cls-9" points="274.45 343.17 264.88 354.89 251.03 344.74 255.31 325.5 274.45 343.17"/><path class="cls-11" d="M75.36,496.44l4.93,9.71S48.83,511.7,50,510.7,75.36,496.44,75.36,496.44Z"/><polygon class="cls-11" points="80.28 506.15 37.85 540.96 49.97 510.7 80.28 506.15"/><polygon class="cls-11" points="109.83 496.44 77.63 522.21 111.92 514.82 109.83 496.44"/><polygon class="cls-11" points="77.63 522.21 53.57 557.06 111.92 514.82 77.63 522.21"/><polygon class="cls-12" points="219.46 332.71 215.72 344.73 196.54 353.82 201.47 343.17 219.46 332.71"/><polygon class="cls-12" points="219.46 332.71 227.26 328.17 227.26 339.13 215.72 353.82 215.72 344.73 219.46 332.71"/><polygon class="cls-12" points="195.84 377.85 190.16 394.52 177.65 398.69 195.84 377.85"/><polygon class="cls-12" points="274.45 343.17 280.06 365.31 264.88 354.89 274.45 343.17"/><polygon class="cls-12" points="281.88 336.73 287.29 348.23 302.25 362.23 288.96 346.07 281.88 336.73"/><polygon class="cls-5" points="278.99 430.57 282.54 441.22 288.91 437.43 285.17 435.22 278.99 430.57"/><polygon class="cls-13" points="278.99 430.57 282.54 441.22 272.81 436.28 278.99 430.57"/><circle class="cls-14" cx="260.73" cy="377.46" r="10"/><circle class="cls-15" cx="260.35" cy="378.28" r="3.27"/><circle class="cls-16" cx="260.3" cy="377.58" r="3.27"/><path class="cls-17" d="M258.71,376.68l.87-.54.71,1.15.71-1.15h.87v3h-.82V377.4l-.76,1.16h0l-.75-1.16v1.7h-.81Z"/><circle class="cls-18" cx="210.52" cy="368.42" r="10"/><circle class="cls-15" cx="210.14" cy="369.24" r="3.27"/><circle class="cls-16" cx="210.09" cy="368.54" r="3.27"/><path class="cls-17" d="M208.5,367.64l.87-.54.71,1.15.71-1.15h.87v3h-.82v-1.71l-.76,1.16h0l-.75-1.16v1.7h-.81Z"/><circle class="cls-19" cx="354.84" cy="408.95" r="10"/><circle class="cls-15" cx="354.47" cy="409.78" r="3.27"/><circle class="cls-16" cx="354.41" cy="409.07" r="3.27"/><path class="cls-17" d="M352.83,408.17l.87-.54.71,1.15.71-1.15H356v3h-.82V408.9l-.76,1.16h0l-.75-1.16v1.7h-.81Z"/><rect class="cls-20" x="249.33" y="393.8" width="50" height="2"/><rect class="cls-20" x="243.5" y="425.64" width="20" height="2"/><rect class="cls-20" x="288.5" y="416.97" width="20" height="2"/><rect class="cls-20" x="288.5" y="379.39" width="15" height="2"/><rect class="cls-20" x="316.83" y="408.3" width="10" height="2"/><rect class="cls-20" x="156.5" y="394.64" width="10" height="2"/><rect class="cls-20" x="198.17" y="384.3" width="20" height="2"/><rect class="cls-20" x="238.5" y="366.8" width="10" height="2"/><rect class="cls-20" x="191.33" y="411.8" width="51" height="2"/><line class="cls-21" x1="259.25" y1="395.39" x2="259.25" y2="426.14"/><line class="cls-21" x1="414.67" y1="474.35" x2="414.67" y2="482.26"/><line class="cls-21" x1="210.42" y1="386.72" x2="210.42" y2="412.47"/><line class="cls-21" x1="291.92" y1="380.72" x2="291.92" y2="394.47"/><line class="cls-21" x1="158.92" y1="396.39" x2="158.92" y2="405.64"/><line class="cls-21" x1="240.58" y1="368.72" x2="240.58" y2="373.97"/><line class="cls-21" x1="321.58" y1="409.72" x2="321.58" y2="418.97"/><rect class="cls-22" y="672.02" width="487.13" height="3.28"/><rect class="cls-22" x="305.07" y="674.67" width="7.87" height="1.97"/><rect class="cls-22" x="307.32" y="675.4" width="3.37" height="37.6"/><rect class="cls-22" x="240.08" y="674.67" width="7.87" height="1.97"/><rect class="cls-22" x="242.32" y="675.4" width="3.37" height="43.6"/><rect class="cls-22" x="175.08" y="674.67" width="7.87" height="1.97"/><rect class="cls-22" x="177.32" y="675.4" width="3.37" height="51.6"/><rect class="cls-22" x="110.08" y="674.67" width="7.87" height="1.97"/><rect class="cls-22" x="112.33" y="675.4" width="3.37" height="59.6"/><rect class="cls-22" x="45.08" y="674.67" width="7.87" height="1.97"/><rect class="cls-22" x="47.33" y="675.4" width="3.37" height="56.6"/><rect class="cls-22" x="370.07" y="674.67" width="7.87" height="1.97"/><rect class="cls-22" x="372.32" y="675.4" width="3.37" height="31.6"/><rect class="cls-22" x="435.07" y="674.67" width="7.87" height="1.97"/><rect class="cls-22" x="437.32" y="675.4" width="3.37" height="22.6"/><polygon class="cls-23" points="487.52 688.7 99.5 732.3 0.15 726.3 0.15 752 487.52 752 487.52 688.7"/></g></g></svg>