<svg id="Layer_1" data-name="Layer 1" xmlns="http://www.w3.org/2000/svg" xmlns:xlink="http://www.w3.org/1999/xlink" viewBox="0 0 304.14 19.52"><defs><style>.cls-1{fill:url(#linear-gradient);}.cls-2{fill:url(#linear-gradient-2);}.cls-3{fill:#ff5607;}.cls-4{fill:url(#linear-gradient-3);}.cls-5{fill:url(#linear-gradient-4);}.cls-6{fill:url(#linear-gradient-5);}.cls-7{fill:url(#linear-gradient-6);}.cls-8{fill:url(#linear-gradient-7);}.cls-9{fill:url(#linear-gradient-8);}.cls-10{fill:url(#linear-gradient-9);}.cls-11{fill:url(#linear-gradient-10);}.cls-12{fill:url(#linear-gradient-11);}.cls-13{fill:url(#linear-gradient-12);}.cls-14{fill:#e3e9d6;}.cls-15{fill:url(#linear-gradient-13);}.cls-16{fill:url(#linear-gradient-14);}.cls-17{fill:url(#linear-gradient-15);}.cls-18{fill:url(#linear-gradient-16);}.cls-19{fill:url(#linear-gradient-17);}.cls-20,.cls-21,.cls-37,.cls-38,.cls-54,.cls-55{opacity:0.1;}.cls-20{fill:url(#linear-gradient-18);}.cls-21{fill:url(#linear-gradient-19);}.cls-22{fill:url(#linear-gradient-20);}.cls-23{fill:url(#linear-gradient-21);}.cls-24{fill:url(#linear-gradient-22);}.cls-25{fill:url(#linear-gradient-23);}.cls-26{fill:url(#linear-gradient-24);}.cls-27{fill:url(#linear-gradient-25);}.cls-28{fill:url(#linear-gradient-26);}.cls-29{fill:url(#linear-gradient-27);}.cls-30{fill:url(#linear-gradient-28);}.cls-31{fill:url(#linear-gradient-29);}.cls-32{fill:url(#linear-gradient-30);}.cls-33{fill:url(#linear-gradient-31);}.cls-34{fill:url(#linear-gradient-32);}.cls-35{fill:url(#linear-gradient-33);}.cls-36{fill:url(#linear-gradient-34);}.cls-37{fill:url(#linear-gradient-35);}.cls-38{fill:url(#linear-gradient-36);}.cls-39{fill:url(#linear-gradient-37);}.cls-40{fill:url(#linear-gradient-38);}.cls-41{fill:url(#linear-gradient-39);}.cls-42{fill:url(#linear-gradient-40);}.cls-43{fill:url(#linear-gradient-41);}.cls-44{fill:url(#linear-gradient-42);}.cls-45{fill:url(#linear-gradient-43);}.cls-46{fill:url(#linear-gradient-44);}.cls-47{fill:url(#linear-gradient-45);}.cls-48{fill:url(#linear-gradient-46);}.cls-49{fill:url(#linear-gradient-47);}.cls-50{fill:url(#linear-gradient-48);}.cls-51{fill:url(#linear-gradient-49);}.cls-52{fill:url(#linear-gradient-50);}.cls-53{fill:url(#linear-gradient-51);}.cls-54{fill:url(#linear-gradient-52);}.cls-55{fill:url(#linear-gradient-53);}.cls-56{fill:url(#linear-gradient-54);}</style><linearGradient id="linear-gradient" x1="107.87" y1="14.84" x2="112.53" y2="14.84" gradientUnits="userSpaceOnUse"><stop offset="0" stop-color="#995f64"/><stop offset="0.86" stop-color="#7b5157"/></linearGradient><linearGradient id="linear-gradient-2" x1="206.14" y1="14.84" x2="210.79" y2="14.84" xlink:href="#linear-gradient"/><linearGradient id="linear-gradient-3" x1="1763.06" y1="5.64" x2="1772.71" y2="5.64" gradientTransform="matrix(-1, 0, 0, 1, 1778.46, 0)" xlink:href="#linear-gradient"/><linearGradient id="linear-gradient-4" x1="1755.36" y1="5.51" x2="1759.1" y2="5.51" gradientTransform="matrix(1, 0, 0, -1, -1736, 11.02)" xlink:href="#linear-gradient"/><linearGradient id="linear-gradient-5" x1="1748.31" y1="5.51" x2="1752.05" y2="5.51" gradientTransform="matrix(1, 0, 0, -1, -1721.89, 11.02)" xlink:href="#linear-gradient"/><linearGradient id="linear-gradient-6" x1="1741.25" y1="5.51" x2="1744.99" y2="5.51" gradientTransform="matrix(1, 0, 0, -1, -1707.78, 11.02)" xlink:href="#linear-gradient"/><linearGradient id="linear-gradient-7" x1="1734.2" y1="5.51" x2="1737.94" y2="5.51" gradientTransform="matrix(1, 0, 0, -1, -1693.67, 11.02)" xlink:href="#linear-gradient"/><linearGradient id="linear-gradient-8" x1="1703.71" y1="5.51" x2="1707.45" y2="5.51" gradientTransform="matrix(1, 0, 0, -1, -1632.7, 11.02)" xlink:href="#linear-gradient"/><linearGradient id="linear-gradient-9" x1="1696.66" y1="5.51" x2="1700.4" y2="5.51" gradientTransform="matrix(1, 0, 0, -1, -1618.6, 11.02)" xlink:href="#linear-gradient"/><linearGradient id="linear-gradient-10" x1="1689.61" y1="5.51" x2="1693.34" y2="5.51" gradientTransform="matrix(1, 0, 0, -1, -1604.49, 11.02)" xlink:href="#linear-gradient"/><linearGradient id="linear-gradient-11" x1="1682.55" y1="5.51" x2="1686.29" y2="5.51" gradientTransform="matrix(1, 0, 0, -1, -1590.38, 11.02)" xlink:href="#linear-gradient"/><linearGradient id="linear-gradient-12" x1="1735.59" y1="17.16" x2="1740.29" y2="17.16" gradientTransform="matrix(-1, 0, 0, 1, 1778.46, 0)" xlink:href="#linear-gradient"/><linearGradient id="linear-gradient-13" x1="1744.3" y1="17.16" x2="1749" y2="17.16" gradientTransform="matrix(-1, 0, 0, 1, 1778.46, 0)" xlink:href="#linear-gradient"/><linearGradient id="linear-gradient-14" x1="1753.01" y1="17.16" x2="1757.71" y2="17.16" gradientTransform="matrix(-1, 0, 0, 1, 1778.46, 0)" xlink:href="#linear-gradient"/><linearGradient id="linear-gradient-15" x1="1683.94" y1="17.16" x2="1688.64" y2="17.16" gradientTransform="matrix(-1, 0, 0, 1, 1778.46, 0)" xlink:href="#linear-gradient"/><linearGradient id="linear-gradient-16" x1="1692.65" y1="17.16" x2="1697.35" y2="17.16" gradientTransform="matrix(-1, 0, 0, 1, 1778.46, 0)" xlink:href="#linear-gradient"/><linearGradient id="linear-gradient-17" x1="1701.36" y1="17.16" x2="1706.06" y2="17.16" gradientTransform="matrix(-1, 0, 0, 1, 1778.46, 0)" xlink:href="#linear-gradient"/><linearGradient id="linear-gradient-18" x1="1727.28" y1="8.58" x2="1731.74" y2="8.58" gradientTransform="matrix(-1, 0, 0, 1, 1778.46, 0)" gradientUnits="userSpaceOnUse"><stop offset="0.14" stop-color="#7b5157"/><stop offset="1" stop-color="#995f64" stop-opacity="0"/></linearGradient><linearGradient id="linear-gradient-19" x1="1793.77" y1="8.58" x2="1798.23" y2="8.58" gradientTransform="translate(1862.19 17.16) rotate(-180)" xlink:href="#linear-gradient-18"/><linearGradient id="linear-gradient-20" x1="1718.4" y1="8.71" x2="1723.21" y2="8.71" gradientTransform="matrix(1, 0, 0, -1, -1663.14, 17.43)" xlink:href="#linear-gradient"/><linearGradient id="linear-gradient-21" x1="-356.29" y1="5.51" x2="-352.55" y2="5.51" gradientTransform="translate(553.24)" xlink:href="#linear-gradient"/><linearGradient id="linear-gradient-22" x1="-363.34" y1="5.51" x2="-359.6" y2="5.51" gradientTransform="translate(553.24)" xlink:href="#linear-gradient"/><linearGradient id="linear-gradient-23" x1="-370.39" y1="5.51" x2="-366.66" y2="5.51" gradientTransform="translate(553.24)" xlink:href="#linear-gradient"/><linearGradient id="linear-gradient-24" x1="-377.45" y1="5.51" x2="-373.71" y2="5.51" gradientTransform="translate(553.24)" xlink:href="#linear-gradient"/><linearGradient id="linear-gradient-25" x1="-407.93" y1="5.51" x2="-404.2" y2="5.51" gradientTransform="translate(553.24)" xlink:href="#linear-gradient"/><linearGradient id="linear-gradient-26" x1="-414.99" y1="5.51" x2="-411.25" y2="5.51" gradientTransform="translate(553.24)" xlink:href="#linear-gradient"/><linearGradient id="linear-gradient-27" x1="-422.04" y1="5.51" x2="-418.3" y2="5.51" gradientTransform="translate(553.24)" xlink:href="#linear-gradient"/><linearGradient id="linear-gradient-28" x1="-429.1" y1="5.51" x2="-425.36" y2="5.51" gradientTransform="translate(553.24)" xlink:href="#linear-gradient"/><linearGradient id="linear-gradient-29" x1="-376.06" y1="17.16" x2="-371.36" y2="17.16" gradientTransform="translate(553.24)" xlink:href="#linear-gradient"/><linearGradient id="linear-gradient-30" x1="-367.35" y1="17.16" x2="-362.65" y2="17.16" gradientTransform="translate(553.24)" xlink:href="#linear-gradient"/><linearGradient id="linear-gradient-31" x1="-358.64" y1="17.16" x2="-353.94" y2="17.16" gradientTransform="translate(553.24)" xlink:href="#linear-gradient"/><linearGradient id="linear-gradient-32" x1="-427.71" y1="17.16" x2="-423.01" y2="17.16" gradientTransform="translate(553.24)" xlink:href="#linear-gradient"/><linearGradient id="linear-gradient-33" x1="-419" y1="17.16" x2="-414.29" y2="17.16" gradientTransform="translate(553.24)" xlink:href="#linear-gradient"/><linearGradient id="linear-gradient-34" x1="-410.29" y1="17.16" x2="-405.58" y2="17.16" gradientTransform="translate(553.24)" xlink:href="#linear-gradient"/><linearGradient id="linear-gradient-35" x1="-384.37" y1="8.58" x2="-379.91" y2="8.58" gradientTransform="translate(-211.04 17.16) rotate(-180)" xlink:href="#linear-gradient-18"/><linearGradient id="linear-gradient-36" x1="3905.42" y1="8.58" x2="3909.88" y2="8.58" gradientTransform="matrix(-1, 0, 0, 1, 4061.52, 0)" xlink:href="#linear-gradient-18"/><linearGradient id="linear-gradient-37" x1="-393.25" y1="8.71" x2="-388.44" y2="8.71" gradientTransform="translate(553.24)" xlink:href="#linear-gradient"/><linearGradient id="linear-gradient-38" x1="-258.29" y1="5.51" x2="-254.55" y2="5.51" gradientTransform="translate(553.24)" xlink:href="#linear-gradient"/><linearGradient id="linear-gradient-39" x1="-265.34" y1="5.51" x2="-261.6" y2="5.51" gradientTransform="translate(553.24)" xlink:href="#linear-gradient"/><linearGradient id="linear-gradient-40" x1="-272.39" y1="5.51" x2="-268.66" y2="5.51" gradientTransform="translate(553.24)" xlink:href="#linear-gradient"/><linearGradient id="linear-gradient-41" x1="-279.45" y1="5.51" x2="-275.71" y2="5.51" gradientTransform="translate(553.24)" xlink:href="#linear-gradient"/><linearGradient id="linear-gradient-42" x1="-309.93" y1="5.51" x2="-306.2" y2="5.51" gradientTransform="translate(553.24)" xlink:href="#linear-gradient"/><linearGradient id="linear-gradient-43" x1="-316.99" y1="5.51" x2="-313.25" y2="5.51" gradientTransform="translate(553.24)" xlink:href="#linear-gradient"/><linearGradient id="linear-gradient-44" x1="-324.04" y1="5.51" x2="-320.3" y2="5.51" gradientTransform="translate(553.24)" xlink:href="#linear-gradient"/><linearGradient id="linear-gradient-45" x1="-331.1" y1="5.51" x2="-327.36" y2="5.51" gradientTransform="translate(553.24)" xlink:href="#linear-gradient"/><linearGradient id="linear-gradient-46" x1="-278.06" y1="17.16" x2="-273.36" y2="17.16" gradientTransform="translate(553.24)" xlink:href="#linear-gradient"/><linearGradient id="linear-gradient-47" x1="-269.35" y1="17.16" x2="-264.65" y2="17.16" gradientTransform="translate(553.24)" xlink:href="#linear-gradient"/><linearGradient id="linear-gradient-48" x1="-260.64" y1="17.16" x2="-255.94" y2="17.16" gradientTransform="translate(553.24)" xlink:href="#linear-gradient"/><linearGradient id="linear-gradient-49" x1="-329.71" y1="17.16" x2="-325.01" y2="17.16" gradientTransform="translate(553.24)" xlink:href="#linear-gradient"/><linearGradient id="linear-gradient-50" x1="-321" y1="17.16" x2="-316.29" y2="17.16" gradientTransform="translate(553.24)" xlink:href="#linear-gradient"/><linearGradient id="linear-gradient-51" x1="-312.29" y1="17.16" x2="-307.58" y2="17.16" gradientTransform="translate(553.24)" xlink:href="#linear-gradient"/><linearGradient id="linear-gradient-52" x1="-286.37" y1="8.58" x2="-281.91" y2="8.58" gradientTransform="translate(-15.04 17.16) rotate(-180)" xlink:href="#linear-gradient-18"/><linearGradient id="linear-gradient-53" x1="3807.42" y1="8.58" x2="3811.88" y2="8.58" gradientTransform="matrix(-1, 0, 0, 1, 4061.52, 0)" xlink:href="#linear-gradient-18"/><linearGradient id="linear-gradient-54" x1="-295.25" y1="8.71" x2="-290.44" y2="8.71" gradientTransform="translate(553.24)" xlink:href="#linear-gradient"/></defs><title>boat</title><g id="train"><rect class="cls-1" x="107.87" y="12.51" width="4.65" height="4.65"/><rect class="cls-2" x="206.14" y="12.51" width="4.65" height="4.65"/><path class="cls-3" d="M41.34,13H22.28a4.87,4.87,0,0,0-4.82,4.17H0L7.7,0H107.87V17.16H97.81A4.87,4.87,0,0,0,93,13H73.93a4.87,4.87,0,0,0-4.82,4.17H46.16A4.87,4.87,0,0,0,41.34,13Z"/><path class="cls-4" d="M5.76,7.63h7.65a2,2,0,0,0,2-2h0a2,2,0,0,0-2-2H6.7Z"/><rect class="cls-5" x="19.36" y="3.64" width="3.74" height="3.74" transform="translate(42.46 11.02) rotate(-180)"/><rect class="cls-6" x="26.42" y="3.64" width="3.74" height="3.74" transform="translate(56.57 11.02) rotate(-180)"/><rect class="cls-7" x="33.47" y="3.64" width="3.74" height="3.74" transform="translate(70.68 11.02) rotate(-180)"/><rect class="cls-8" x="40.52" y="3.64" width="3.74" height="3.74" transform="translate(84.79 11.02) rotate(-180)"/><rect class="cls-9" x="71.01" y="3.64" width="3.74" height="3.74" transform="translate(145.76 11.02) rotate(-180)"/><rect class="cls-10" x="78.06" y="3.64" width="3.74" height="3.74" transform="translate(159.87 11.02) rotate(-180)"/><rect class="cls-11" x="85.12" y="3.64" width="3.74" height="3.74" transform="translate(173.97 11.02) rotate(-180)"/><rect class="cls-12" x="92.17" y="3.64" width="3.74" height="3.74" transform="translate(188.08 11.02) rotate(-180)"/><circle class="cls-13" cx="40.52" cy="17.16" r="2.35"/><circle class="cls-14" cx="40.52" cy="17.16" r="1.18"/><circle class="cls-15" cx="31.81" cy="17.16" r="2.35"/><circle class="cls-14" cx="31.81" cy="17.16" r="1.18"/><circle class="cls-16" cx="23.1" cy="17.16" r="2.35"/><circle class="cls-14" cx="23.1" cy="17.16" r="1.18"/><circle class="cls-17" cx="92.17" cy="17.16" r="2.35"/><circle class="cls-14" cx="92.17" cy="17.16" r="1.18"/><circle class="cls-18" cx="83.46" cy="17.16" r="2.35"/><circle class="cls-14" cx="83.46" cy="17.16" r="1.18"/><circle class="cls-19" cx="74.75" cy="17.16" r="2.35"/><circle class="cls-14" cx="74.75" cy="17.16" r="1.18"/><rect class="cls-20" x="46.72" width="4.46" height="17.16"/><rect class="cls-21" x="63.96" width="4.46" height="17.16" transform="translate(132.38 17.16) rotate(180)"/><rect class="cls-22" x="55.25" y="3.64" width="4.81" height="10.15" transform="translate(115.32 17.43) rotate(-180)"/><rect class="cls-14" x="53.96" y="16.39" width="6.83" height="1.55"/><path class="cls-3" d="M178.71,13h19.06a4.87,4.87,0,0,1,4.82,4.17h3.54V0h-94V17.16h10.06A4.87,4.87,0,0,1,127.07,13h19.06a4.87,4.87,0,0,1,4.82,4.17h22.94A4.87,4.87,0,0,1,178.71,13Z"/><rect class="cls-23" x="196.96" y="3.64" width="3.74" height="3.74"/><rect class="cls-24" x="189.9" y="3.64" width="3.74" height="3.74"/><rect class="cls-25" x="182.85" y="3.64" width="3.74" height="3.74"/><rect class="cls-26" x="175.8" y="3.64" width="3.74" height="3.74"/><rect class="cls-27" x="145.31" y="3.64" width="3.74" height="3.74"/><rect class="cls-28" x="138.26" y="3.64" width="3.74" height="3.74"/><rect class="cls-29" x="131.2" y="3.64" width="3.74" height="3.74"/><rect class="cls-30" x="124.15" y="3.64" width="3.74" height="3.74"/><circle class="cls-31" cx="179.53" cy="17.16" r="2.35"/><circle class="cls-14" cx="179.53" cy="17.16" r="1.18"/><circle class="cls-32" cx="188.25" cy="17.16" r="2.35"/><circle class="cls-14" cx="188.25" cy="17.16" r="1.18"/><circle class="cls-33" cx="196.96" cy="17.16" r="2.35"/><circle class="cls-14" cx="196.96" cy="17.16" r="1.18"/><circle class="cls-34" cx="127.89" cy="17.16" r="2.35"/><circle class="cls-14" cx="127.89" cy="17.16" r="1.18"/><circle class="cls-35" cx="136.6" cy="17.16" r="2.35"/><circle class="cls-14" cx="136.6" cy="17.16" r="1.18"/><circle class="cls-36" cx="145.31" cy="17.16" r="2.35"/><circle class="cls-14" cx="145.31" cy="17.16" r="1.18"/><rect class="cls-37" x="168.87" width="4.46" height="17.16" transform="translate(342.21 17.16) rotate(180)"/><rect class="cls-38" x="151.64" width="4.46" height="17.16"/><rect class="cls-39" x="159.99" y="3.64" width="4.81" height="10.15"/><rect class="cls-14" x="159.27" y="16.39" width="6.83" height="1.55" transform="translate(325.36 34.33) rotate(180)"/><path class="cls-3" d="M276.71,13h19.06a4.87,4.87,0,0,1,4.82,4.17h3.54V0h-94V17.16h10.06A4.87,4.87,0,0,1,225.07,13h19.06a4.87,4.87,0,0,1,4.82,4.17h22.94A4.87,4.87,0,0,1,276.71,13Z"/><rect class="cls-40" x="294.96" y="3.64" width="3.74" height="3.74"/><rect class="cls-41" x="287.9" y="3.64" width="3.74" height="3.74"/><rect class="cls-42" x="280.85" y="3.64" width="3.74" height="3.74"/><rect class="cls-43" x="273.8" y="3.64" width="3.74" height="3.74"/><rect class="cls-44" x="243.31" y="3.64" width="3.74" height="3.74"/><rect class="cls-45" x="236.26" y="3.64" width="3.74" height="3.74"/><rect class="cls-46" x="229.2" y="3.64" width="3.74" height="3.74"/><rect class="cls-47" x="222.15" y="3.64" width="3.74" height="3.74"/><circle class="cls-48" cx="277.53" cy="17.16" r="2.35"/><circle class="cls-14" cx="277.53" cy="17.16" r="1.18"/><circle class="cls-49" cx="286.25" cy="17.16" r="2.35"/><circle class="cls-14" cx="286.25" cy="17.16" r="1.18"/><circle class="cls-50" cx="294.96" cy="17.16" r="2.35"/><circle class="cls-14" cx="294.96" cy="17.16" r="1.18"/><circle class="cls-51" cx="225.89" cy="17.16" r="2.35"/><circle class="cls-14" cx="225.89" cy="17.16" r="1.18"/><circle class="cls-52" cx="234.6" cy="17.16" r="2.35"/><circle class="cls-14" cx="234.6" cy="17.16" r="1.18"/><circle class="cls-53" cx="243.31" cy="17.16" r="2.35"/><circle class="cls-14" cx="243.31" cy="17.16" r="1.18"/><rect class="cls-54" x="266.87" width="4.46" height="17.16" transform="translate(538.21 17.16) rotate(180)"/><rect class="cls-55" x="249.64" width="4.46" height="17.16"/><rect class="cls-56" x="257.99" y="3.64" width="4.81" height="10.15"/><rect class="cls-14" x="257.27" y="16.39" width="6.83" height="1.55" transform="translate(521.36 34.33) rotate(180)"/></g></svg>