<svg id="Layer_1" data-name="Layer 1" xmlns="http://www.w3.org/2000/svg" xmlns:xlink="http://www.w3.org/1999/xlink" viewBox="0 0 69.67 71.92"><defs><style>.cls-1,.cls-5{fill:none;stroke-miterlimit:10;}.cls-1{stroke-width:3px;stroke:url(#linear-gradient);}.cls-2{fill:url(#linear-gradient-2);}.cls-3{fill:url(#linear-gradient-3);}.cls-4{fill:url(#linear-gradient-4);}.cls-5{stroke:#fff;}.cls-6{fill:#525252;}.cls-7{fill:url(#linear-gradient-5);}</style><linearGradient id="linear-gradient" x1="191.74" y1="-449.4" x2="191.74" y2="-452.4" gradientTransform="translate(220.65 486.69) rotate(-45)" gradientUnits="userSpaceOnUse"><stop offset="0" stop-color="#ced0c8"/><stop offset="0.86" stop-color="#e3e9d6"/></linearGradient><linearGradient id="linear-gradient-2" x1="175.71" y1="-403.92" x2="175.71" y2="-497.88" xlink:href="#linear-gradient"/><linearGradient id="linear-gradient-3" x1="208.72" y1="-432.55" x2="208.72" y2="-469.25" xlink:href="#linear-gradient"/><linearGradient id="linear-gradient-4" x1="62.29" y1="-84.73" x2="71.11" y2="-84.73" gradientTransform="translate(-49.62 24.96) rotate(45)" xlink:href="#linear-gradient"/><linearGradient id="linear-gradient-5" x1="0" y1="61.22" x2="21.4" y2="61.22" gradientTransform="matrix(1, 0, 0, 1, 0, 0)" xlink:href="#linear-gradient"/></defs><title>dish</title><g id="dish"><line class="cls-1" x1="28.74" y1="40.94" x2="46.06" y2="23.62"/><path class="cls-2" d="M3.23,0A52.25,52.25,0,0,0,69.67,66.44Z"/><path class="cls-3" d="M40.49,3.23A20.41,20.41,0,0,0,66.44,29.18Z"/><polygon class="cls-4" points="50.61 12.83 61.19 8.48 56.85 19.06 50.61 12.83"/><line class="cls-5" x1="57.77" y1="28.62" x2="57.77" y2="55.93"/><line class="cls-5" x1="54.11" y1="26.82" x2="41.18" y2="39.35"/><line class="cls-5" x1="42.74" y1="15.45" x2="30.21" y2="28.38"/><line class="cls-5" x1="41.05" y1="11.91" x2="13.74" y2="11.91"/><rect class="cls-6" x="35.8" y="14.56" width="36.7" height="1.92" transform="translate(26.84 -33.74) rotate(45)"/><circle class="cls-6" cx="61.19" cy="8.48" r="1.54" transform="translate(11.93 45.75) rotate(-45)"/><circle class="cls-7" cx="10.7" cy="61.22" r="10.7"/></g></svg>