<svg xmlns="http://www.w3.org/2000/svg" xmlns:xlink="http://www.w3.org/1999/xlink" viewBox="0 0 1383.03 1042.75"><defs><style>.cls-1{isolation:isolate;}.cls-2{fill:url(#linear-gradient);}.cls-3{fill:url(#linear-gradient-2);}.cls-4{fill:#ff5607;}.cls-5{fill:url(#linear-gradient-3);}.cls-6{fill:url(#linear-gradient-4);}.cls-7{fill:url(#linear-gradient-5);}.cls-8{fill:url(#linear-gradient-6);}.cls-9{fill:url(#linear-gradient-7);}.cls-10{fill:url(#linear-gradient-8);}.cls-11{fill:url(#linear-gradient-9);}.cls-12{fill:url(#linear-gradient-10);}.cls-13{fill:url(#linear-gradient-11);}.cls-14{fill:url(#linear-gradient-12);}.cls-15{fill:#e3e9d6;}.cls-16{fill:url(#linear-gradient-13);}.cls-17{fill:url(#linear-gradient-14);}.cls-18{fill:url(#linear-gradient-15);}.cls-19{fill:url(#linear-gradient-16);}.cls-20{fill:url(#linear-gradient-17);}.cls-21,.cls-22,.cls-38,.cls-39,.cls-55,.cls-56,.cls-84,.cls-87{opacity:0.1;}.cls-21{fill:url(#linear-gradient-18);}.cls-22{fill:url(#linear-gradient-19);}.cls-23{fill:url(#linear-gradient-20);}.cls-24{fill:url(#linear-gradient-21);}.cls-25{fill:url(#linear-gradient-22);}.cls-26{fill:url(#linear-gradient-23);}.cls-27{fill:url(#linear-gradient-24);}.cls-28{fill:url(#linear-gradient-25);}.cls-29{fill:url(#linear-gradient-26);}.cls-30{fill:url(#linear-gradient-27);}.cls-31{fill:url(#linear-gradient-28);}.cls-32{fill:url(#linear-gradient-29);}.cls-33{fill:url(#linear-gradient-30);}.cls-34{fill:url(#linear-gradient-31);}.cls-35{fill:url(#linear-gradient-32);}.cls-36{fill:url(#linear-gradient-33);}.cls-37{fill:url(#linear-gradient-34);}.cls-38{fill:url(#linear-gradient-35);}.cls-39{fill:url(#linear-gradient-36);}.cls-40{fill:url(#linear-gradient-37);}.cls-41{fill:url(#linear-gradient-38);}.cls-42{fill:url(#linear-gradient-39);}.cls-43{fill:url(#linear-gradient-40);}.cls-44{fill:url(#linear-gradient-41);}.cls-45{fill:url(#linear-gradient-42);}.cls-46{fill:url(#linear-gradient-43);}.cls-47{fill:url(#linear-gradient-44);}.cls-48{fill:url(#linear-gradient-45);}.cls-49{fill:url(#linear-gradient-46);}.cls-50{fill:url(#linear-gradient-47);}.cls-51{fill:url(#linear-gradient-48);}.cls-52{fill:url(#linear-gradient-49);}.cls-53{fill:url(#linear-gradient-50);}.cls-54{fill:url(#linear-gradient-51);}.cls-55{fill:url(#linear-gradient-52);}.cls-56{fill:url(#linear-gradient-53);}.cls-57{fill:url(#linear-gradient-54);}.cls-58,.cls-62,.cls-64,.cls-65,.cls-70,.cls-75,.cls-76,.cls-91,.cls-92{opacity:0.6;}.cls-58{fill:url(#radial-gradient);}.cls-59{fill:#eba24c;}.cls-60{fill:#ffd266;}.cls-61{fill:#f9b048;}.cls-62{fill:url(#linear-gradient-55);}.cls-63{fill:#fff;}.cls-64{fill:url(#radial-gradient-2);}.cls-65{fill:url(#linear-gradient-56);}.cls-66{fill:#efefef;}.cls-67{fill:#81c6ce;}.cls-100,.cls-68{fill:#865776;}.cls-69{fill:url(#linear-gradient-57);}.cls-71{fill:url(#linear-gradient-58);}.cls-72{fill:url(#linear-gradient-59);}.cls-73{fill:url(#linear-gradient-60);}.cls-74{fill:url(#linear-gradient-61);}.cls-75{fill:url(#radial-gradient-3);}.cls-76{fill:url(#linear-gradient-62);}.cls-77{fill:#38adca;}.cls-78{fill:url(#linear-gradient-63);}.cls-79{fill:url(#linear-gradient-64);}.cls-80{fill:#666;}.cls-81,.cls-86,.cls-88,.cls-89,.cls-94,.cls-95,.cls-98,.cls-99{fill:none;}.cls-81,.cls-86{stroke:#7b5157;}.cls-100,.cls-81,.cls-86,.cls-88,.cls-89,.cls-94,.cls-95,.cls-98,.cls-99{stroke-miterlimit:10;}.cls-100,.cls-81,.cls-89,.cls-94,.cls-95{stroke-width:2px;}.cls-82{fill:url(#linear-gradient-65);}.cls-83{fill:url(#linear-gradient-66);}.cls-84{fill:url(#linear-gradient-67);}.cls-85{fill:#7b5157;}.cls-86,.cls-98{stroke-width:3px;}.cls-87{fill:url(#linear-gradient-68);}.cls-88{stroke:#f9b048;stroke-linecap:round;stroke-width:10px;}.cls-89{stroke:#666;}.cls-90{fill:url(#linear-gradient-69);}.cls-91{fill:url(#radial-gradient-4);}.cls-92{fill:url(#linear-gradient-70);}.cls-93{fill:#ee593a;}.cls-100,.cls-94{stroke:#fff;}.cls-95,.cls-99{stroke:#865776;}.cls-95{mix-blend-mode:overlay;}.cls-96{fill:url(#linear-gradient-71);}.cls-97{fill:#ced0c8;}.cls-98{stroke:#dee3d2;}.cls-99{stroke-width:4px;}.cls-101{fill:#89ced9;}</style><linearGradient id="linear-gradient" x1="1186.77" y1="516.85" x2="1191.43" y2="516.85" gradientUnits="userSpaceOnUse"><stop offset="0" stop-color="#995f64"/><stop offset="0.86" stop-color="#7b5157"/></linearGradient><linearGradient id="linear-gradient-2" x1="1285.03" y1="516.85" x2="1289.69" y2="516.85" xlink:href="#linear-gradient"/><linearGradient id="linear-gradient-3" x1="1374.64" y1="520.98" x2="1384.29" y2="520.98" gradientTransform="matrix(-1, 0, 0, 1, 2503.62, 0)" xlink:href="#linear-gradient"/><linearGradient id="linear-gradient-4" x1="1366.94" y1="520.85" x2="1370.68" y2="520.85" gradientTransform="matrix(1, 0, 0, -1, -234, 1041.71)" xlink:href="#linear-gradient"/><linearGradient id="linear-gradient-5" x1="1359.89" y1="520.85" x2="1363.63" y2="520.85" gradientTransform="matrix(1, 0, 0, -1, -219.89, 1041.71)" xlink:href="#linear-gradient"/><linearGradient id="linear-gradient-6" x1="1352.83" y1="520.85" x2="1356.57" y2="520.85" gradientTransform="matrix(1, 0, 0, -1, -205.78, 1041.71)" xlink:href="#linear-gradient"/><linearGradient id="linear-gradient-7" x1="1345.78" y1="520.85" x2="1349.52" y2="520.85" gradientTransform="matrix(1, 0, 0, -1, -191.67, 1041.71)" xlink:href="#linear-gradient"/><linearGradient id="linear-gradient-8" x1="1315.29" y1="520.85" x2="1319.03" y2="520.85" gradientTransform="matrix(1, 0, 0, -1, -130.7, 1041.71)" xlink:href="#linear-gradient"/><linearGradient id="linear-gradient-9" x1="1308.24" y1="520.85" x2="1311.98" y2="520.85" gradientTransform="matrix(1, 0, 0, -1, -116.6, 1041.71)" xlink:href="#linear-gradient"/><linearGradient id="linear-gradient-10" x1="1301.19" y1="520.85" x2="1304.92" y2="520.85" gradientTransform="matrix(1, 0, 0, -1, -102.49, 1041.71)" xlink:href="#linear-gradient"/><linearGradient id="linear-gradient-11" x1="1294.13" y1="520.85" x2="1297.87" y2="520.85" gradientTransform="matrix(1, 0, 0, -1, -88.38, 1041.71)" xlink:href="#linear-gradient"/><linearGradient id="linear-gradient-12" x1="1347.17" y1="532.51" x2="1351.87" y2="532.51" gradientTransform="matrix(-1, 0, 0, 1, 2468.94, -13.33)" xlink:href="#linear-gradient"/><linearGradient id="linear-gradient-13" x1="1355.88" y1="532.51" x2="1360.58" y2="532.51" gradientTransform="matrix(-1, 0, 0, 1, 2468.94, -13.33)" xlink:href="#linear-gradient"/><linearGradient id="linear-gradient-14" x1="1364.59" y1="532.51" x2="1369.29" y2="532.51" gradientTransform="matrix(-1, 0, 0, 1, 2468.94, -13.33)" xlink:href="#linear-gradient"/><linearGradient id="linear-gradient-15" x1="1295.52" y1="532.51" x2="1300.22" y2="532.51" gradientTransform="matrix(-1, 0, 0, 1, 2468.94, -13.33)" xlink:href="#linear-gradient"/><linearGradient id="linear-gradient-16" x1="1304.23" y1="532.51" x2="1308.93" y2="532.51" gradientTransform="matrix(-1, 0, 0, 1, 2468.94, -13.33)" xlink:href="#linear-gradient"/><linearGradient id="linear-gradient-17" x1="1312.94" y1="532.51" x2="1317.64" y2="532.51" gradientTransform="matrix(-1, 0, 0, 1, 2468.94, -13.33)" xlink:href="#linear-gradient"/><linearGradient id="linear-gradient-18" x1="1338.86" y1="523.93" x2="1343.32" y2="523.93" gradientTransform="matrix(-1, 0, 0, 1, 2468.94, -13.33)" gradientUnits="userSpaceOnUse"><stop offset="0.14" stop-color="#7b5157"/><stop offset="1" stop-color="#995f64" stop-opacity="0"/></linearGradient><linearGradient id="linear-gradient-19" x1="2907.35" y1="523.93" x2="2911.81" y2="523.93" gradientTransform="translate(4089.35 1047.85) rotate(-180)" xlink:href="#linear-gradient-18"/><linearGradient id="linear-gradient-20" x1="1329.98" y1="524.06" x2="1334.79" y2="524.06" gradientTransform="matrix(1, 0, 0, -1, -161.14, 1048.11)" xlink:href="#linear-gradient"/><linearGradient id="linear-gradient-21" x1="757.29" y1="520.85" x2="761.03" y2="520.85" gradientTransform="translate(518.56 -13.33)" xlink:href="#linear-gradient"/><linearGradient id="linear-gradient-22" x1="750.24" y1="520.85" x2="753.98" y2="520.85" gradientTransform="translate(518.56 -13.33)" xlink:href="#linear-gradient"/><linearGradient id="linear-gradient-23" x1="743.19" y1="520.85" x2="746.92" y2="520.85" gradientTransform="translate(518.56 -13.33)" xlink:href="#linear-gradient"/><linearGradient id="linear-gradient-24" x1="736.13" y1="520.85" x2="739.87" y2="520.85" gradientTransform="translate(518.56 -13.33)" xlink:href="#linear-gradient"/><linearGradient id="linear-gradient-25" x1="705.65" y1="520.85" x2="709.38" y2="520.85" gradientTransform="translate(518.56 -13.33)" xlink:href="#linear-gradient"/><linearGradient id="linear-gradient-26" x1="698.59" y1="520.85" x2="702.33" y2="520.85" gradientTransform="translate(518.56 -13.33)" xlink:href="#linear-gradient"/><linearGradient id="linear-gradient-27" x1="691.54" y1="520.85" x2="695.28" y2="520.85" gradientTransform="translate(518.56 -13.33)" xlink:href="#linear-gradient"/><linearGradient id="linear-gradient-28" x1="684.48" y1="520.85" x2="688.22" y2="520.85" gradientTransform="translate(518.56 -13.33)" xlink:href="#linear-gradient"/><linearGradient id="linear-gradient-29" x1="737.52" y1="532.51" x2="742.22" y2="532.51" gradientTransform="translate(518.56 -13.33)" xlink:href="#linear-gradient"/><linearGradient id="linear-gradient-30" x1="746.23" y1="532.51" x2="750.93" y2="532.51" gradientTransform="translate(518.56 -13.33)" xlink:href="#linear-gradient"/><linearGradient id="linear-gradient-31" x1="754.94" y1="532.51" x2="759.64" y2="532.51" gradientTransform="translate(518.56 -13.33)" xlink:href="#linear-gradient"/><linearGradient id="linear-gradient-32" x1="685.87" y1="532.51" x2="690.57" y2="532.51" gradientTransform="translate(518.56 -13.33)" xlink:href="#linear-gradient"/><linearGradient id="linear-gradient-33" x1="694.58" y1="532.51" x2="699.29" y2="532.51" gradientTransform="translate(518.56 -13.33)" xlink:href="#linear-gradient"/><linearGradient id="linear-gradient-34" x1="703.29" y1="532.51" x2="708" y2="532.51" gradientTransform="translate(518.56 -13.33)" xlink:href="#linear-gradient"/><linearGradient id="linear-gradient-35" x1="729.21" y1="523.93" x2="733.67" y2="523.93" gradientTransform="translate(2016.12 1047.85) rotate(-180)" xlink:href="#linear-gradient-18"/><linearGradient id="linear-gradient-36" x1="3517" y1="523.93" x2="3521.46" y2="523.93" gradientTransform="matrix(-1, 0, 0, 1, 4751.99, -13.33)" xlink:href="#linear-gradient-18"/><linearGradient id="linear-gradient-37" x1="720.33" y1="524.06" x2="725.14" y2="524.06" gradientTransform="translate(518.56 -13.33)" xlink:href="#linear-gradient"/><linearGradient id="linear-gradient-38" x1="855.29" y1="520.85" x2="859.03" y2="520.85" gradientTransform="translate(518.56 -13.33)" xlink:href="#linear-gradient"/><linearGradient id="linear-gradient-39" x1="848.24" y1="520.85" x2="851.98" y2="520.85" gradientTransform="translate(518.56 -13.33)" xlink:href="#linear-gradient"/><linearGradient id="linear-gradient-40" x1="841.19" y1="520.85" x2="844.92" y2="520.85" gradientTransform="translate(518.56 -13.33)" xlink:href="#linear-gradient"/><linearGradient id="linear-gradient-41" x1="834.13" y1="520.85" x2="837.87" y2="520.85" gradientTransform="translate(518.56 -13.33)" xlink:href="#linear-gradient"/><linearGradient id="linear-gradient-42" x1="803.65" y1="520.85" x2="807.38" y2="520.85" gradientTransform="translate(518.56 -13.33)" xlink:href="#linear-gradient"/><linearGradient id="linear-gradient-43" x1="796.59" y1="520.85" x2="800.33" y2="520.85" gradientTransform="translate(518.56 -13.33)" xlink:href="#linear-gradient"/><linearGradient id="linear-gradient-44" x1="789.54" y1="520.85" x2="793.28" y2="520.85" gradientTransform="translate(518.56 -13.33)" xlink:href="#linear-gradient"/><linearGradient id="linear-gradient-45" x1="782.48" y1="520.85" x2="786.22" y2="520.85" gradientTransform="translate(518.56 -13.33)" xlink:href="#linear-gradient"/><linearGradient id="linear-gradient-46" x1="835.52" y1="532.51" x2="840.22" y2="532.51" gradientTransform="translate(518.56 -13.33)" xlink:href="#linear-gradient"/><linearGradient id="linear-gradient-47" x1="844.23" y1="532.51" x2="848.93" y2="532.51" gradientTransform="translate(518.56 -13.33)" xlink:href="#linear-gradient"/><linearGradient id="linear-gradient-48" x1="852.94" y1="532.51" x2="857.64" y2="532.51" gradientTransform="translate(518.56 -13.33)" xlink:href="#linear-gradient"/><linearGradient id="linear-gradient-49" x1="783.87" y1="532.51" x2="788.57" y2="532.51" gradientTransform="translate(518.56 -13.33)" xlink:href="#linear-gradient"/><linearGradient id="linear-gradient-50" x1="792.58" y1="532.51" x2="797.29" y2="532.51" gradientTransform="translate(518.56 -13.33)" xlink:href="#linear-gradient"/><linearGradient id="linear-gradient-51" x1="801.29" y1="532.51" x2="806" y2="532.51" gradientTransform="translate(518.56 -13.33)" xlink:href="#linear-gradient"/><linearGradient id="linear-gradient-52" x1="827.21" y1="523.93" x2="831.67" y2="523.93" gradientTransform="translate(2212.12 1047.85) rotate(-180)" xlink:href="#linear-gradient-18"/><linearGradient id="linear-gradient-53" x1="3419" y1="523.93" x2="3423.46" y2="523.93" gradientTransform="matrix(-1, 0, 0, 1, 4751.99, -13.33)" xlink:href="#linear-gradient-18"/><linearGradient id="linear-gradient-54" x1="818.33" y1="524.06" x2="823.14" y2="524.06" gradientTransform="translate(518.56 -13.33)" xlink:href="#linear-gradient"/><radialGradient id="radial-gradient" cx="486.63" cy="741.47" r="25" gradientUnits="userSpaceOnUse"><stop offset="0" stop-color="#ffc364"/><stop offset="0.05" stop-color="#ffc364" stop-opacity="0.93"/><stop offset="0.26" stop-color="#ffc364" stop-opacity="0.65"/><stop offset="0.45" stop-color="#ffc364" stop-opacity="0.42"/><stop offset="0.63" stop-color="#ffc364" stop-opacity="0.24"/><stop offset="0.78" stop-color="#ffc364" stop-opacity="0.11"/><stop offset="0.91" stop-color="#ffc364" stop-opacity="0.03"/><stop offset="1" stop-color="#ffc364" stop-opacity="0"/></radialGradient><linearGradient id="linear-gradient-55" x1="479.42" y1="732.98" x2="491.26" y2="749.64" gradientUnits="userSpaceOnUse"><stop offset="0" stop-color="#fff" stop-opacity="0.75"/><stop offset="0.1" stop-color="#fff" stop-opacity="0.64"/><stop offset="0.33" stop-color="#fff" stop-opacity="0.42"/><stop offset="0.55" stop-color="#fff" stop-opacity="0.24"/><stop offset="0.74" stop-color="#fff" stop-opacity="0.11"/><stop offset="0.89" stop-color="#fff" stop-opacity="0.03"/><stop offset="1" stop-color="#fff" stop-opacity="0"/></linearGradient><radialGradient id="radial-gradient-2" cx="613.17" cy="808.86" r="25" xlink:href="#radial-gradient"/><linearGradient id="linear-gradient-56" x1="605.95" y1="800.37" x2="617.8" y2="817.03" xlink:href="#linear-gradient-55"/><linearGradient id="linear-gradient-57" x1="284.75" y1="-97.81" x2="296.7" y2="-97.81" gradientTransform="matrix(0.98, -0.17, 0.17, 0.98, 89.72, 184.68)" gradientUnits="userSpaceOnUse"><stop offset="0" stop-color="#ced0c8"/><stop offset="0.86" stop-color="#e3e9d6"/></linearGradient><linearGradient id="linear-gradient-58" x1="372.61" y1="89.24" x2="370.35" y2="76.44" gradientUnits="userSpaceOnUse"><stop offset="0" stop-color="#ffc364" stop-opacity="0.25"/><stop offset="0.12" stop-color="#fdc161" stop-opacity="0.29"/><stop offset="0.31" stop-color="#f8ba58" stop-opacity="0.39"/><stop offset="0.53" stop-color="#efae49" stop-opacity="0.55"/><stop offset="0.78" stop-color="#e39f34" stop-opacity="0.77"/><stop offset="1" stop-color="#d78f20"/></linearGradient><linearGradient id="linear-gradient-59" x1="364.37" y1="95.77" x2="361.24" y2="78.05" gradientUnits="userSpaceOnUse"><stop offset="0" stop-color="#ffc364" stop-opacity="0"/><stop offset="0.1" stop-color="#fec162" stop-opacity="0.03"/><stop offset="0.24" stop-color="#fabc5b" stop-opacity="0.13"/><stop offset="0.42" stop-color="#f4b451" stop-opacity="0.28"/><stop offset="0.62" stop-color="#eba942" stop-opacity="0.49"/><stop offset="0.83" stop-color="#e09b30" stop-opacity="0.76"/><stop offset="1" stop-color="#d78f20"/></linearGradient><linearGradient id="linear-gradient-60" x1="372.57" y1="115.65" x2="365.71" y2="76.75" xlink:href="#linear-gradient-59"/><linearGradient id="linear-gradient-61" x1="17.08" y1="511.1" x2="73.94" y2="511.1" gradientUnits="userSpaceOnUse"><stop offset="0" stop-color="#b3c167"/><stop offset="0.47" stop-color="#97aa72"/></linearGradient><radialGradient id="radial-gradient-3" cx="45" cy="470.19" r="45" xlink:href="#radial-gradient"/><linearGradient id="linear-gradient-62" x1="32.89" y1="455.86" x2="54.21" y2="485.85" xlink:href="#linear-gradient-55"/><linearGradient id="linear-gradient-63" x1="558.99" y1="392.7" x2="580.3" y2="392.7" xlink:href="#linear-gradient"/><linearGradient id="linear-gradient-64" x1="529.72" y1="392.7" x2="552.79" y2="392.7" xlink:href="#linear-gradient"/><linearGradient id="linear-gradient-65" x1="130.5" y1="848.53" x2="155.24" y2="848.53" xlink:href="#linear-gradient"/><linearGradient id="linear-gradient-66" x1="196.61" y1="845.43" x2="209.14" y2="845.43" gradientTransform="translate(405.75 1690.85) rotate(-180)" xlink:href="#linear-gradient"/><linearGradient id="linear-gradient-67" x1="197.18" y1="894.89" x2="220.46" y2="894.89" gradientTransform="translate(417.64 1789.78) rotate(-180)" xlink:href="#linear-gradient-18"/><linearGradient id="linear-gradient-68" x1="47.86" y1="897.12" x2="91.54" y2="897.12" gradientUnits="userSpaceOnUse"><stop offset="0" stop-color="#995f64" stop-opacity="0"/><stop offset="0.86" stop-color="#7b5157"/></linearGradient><linearGradient id="linear-gradient-69" x1="115.52" y1="828.73" x2="122.58" y2="828.73" xlink:href="#linear-gradient"/><radialGradient id="radial-gradient-4" cx="1217.13" cy="924.99" r="117.76" xlink:href="#radial-gradient"/><linearGradient id="linear-gradient-70" x1="1190.72" y1="888.64" x2="1239.96" y2="957.9" xlink:href="#linear-gradient-55"/><linearGradient id="linear-gradient-71" x1="-103.31" y1="119.69" x2="40.51" y2="119.69" gradientTransform="translate(1227 -13.33)" gradientUnits="userSpaceOnUse"><stop offset="0.14" stop-color="#e3e9d6"/><stop offset="1" stop-color="#ced0c8"/></linearGradient></defs><title>rocket</title><g class="cls-1"><g id="Layer_1" data-name="Layer 1"><rect class="cls-2" x="1186.77" y="514.52" width="4.65" height="4.65"/><rect class="cls-3" x="1285.03" y="514.52" width="4.65" height="4.65"/><path class="cls-4" d="M1154.92,528.34h-19.06a4.87,4.87,0,0,0-4.82,4.17h-17.46l7.7-17.16h100.17v17.16h-10.06a4.87,4.87,0,0,0-4.82-4.17h-19.06a4.87,4.87,0,0,0-4.82,4.17h-22.94A4.87,4.87,0,0,0,1154.92,528.34Z" transform="translate(-34.68 -13.33)"/><path class="cls-5" d="M1119.34,523H1127a2,2,0,0,0,2-2h0a2,2,0,0,0-2-2h-6.71Z" transform="translate(-34.68 -13.33)"/><rect class="cls-6" x="1132.94" y="518.98" width="3.74" height="3.74" transform="translate(2234.94 1028.37) rotate(-180)"/><rect class="cls-7" x="1140" y="518.98" width="3.74" height="3.74" transform="translate(2249.05 1028.37) rotate(-180)"/><rect class="cls-8" x="1147.05" y="518.98" width="3.74" height="3.74" transform="translate(2263.16 1028.37) rotate(-180)"/><rect class="cls-9" x="1154.1" y="518.98" width="3.74" height="3.74" transform="translate(2277.27 1028.37) rotate(-180)"/><rect class="cls-10" x="1184.59" y="518.98" width="3.74" height="3.74" transform="translate(2338.24 1028.37) rotate(-180)"/><rect class="cls-11" x="1191.64" y="518.98" width="3.74" height="3.74" transform="translate(2352.35 1028.37) rotate(-180)"/><rect class="cls-12" x="1198.7" y="518.98" width="3.74" height="3.74" transform="translate(2366.45 1028.37) rotate(-180)"/><rect class="cls-13" x="1205.75" y="518.98" width="3.74" height="3.74" transform="translate(2380.56 1028.37) rotate(-180)"/><circle class="cls-14" cx="1119.42" cy="519.18" r="2.35"/><circle class="cls-15" cx="1119.42" cy="519.18" r="1.18"/><circle class="cls-16" cx="1110.71" cy="519.18" r="2.35"/><circle class="cls-15" cx="1110.71" cy="519.18" r="1.18"/><circle class="cls-17" cx="1102" cy="519.18" r="2.35"/><circle class="cls-15" cx="1102" cy="519.18" r="1.18"/><circle class="cls-18" cx="1171.07" cy="519.18" r="2.35"/><circle class="cls-15" cx="1171.07" cy="519.18" r="1.18"/><circle class="cls-19" cx="1162.36" cy="519.18" r="2.35"/><circle class="cls-15" cx="1162.36" cy="519.18" r="1.18"/><circle class="cls-20" cx="1153.65" cy="519.18" r="2.35"/><circle class="cls-15" cx="1153.65" cy="519.18" r="1.18"/><rect class="cls-21" x="1125.62" y="502.01" width="4.46" height="17.16"/><rect class="cls-22" x="1177.54" y="515.34" width="4.46" height="17.16" transform="translate(2324.86 1034.52) rotate(180)"/><rect class="cls-23" x="1168.83" y="518.98" width="4.81" height="10.15" transform="translate(2307.8 1034.78) rotate(-180)"/><rect class="cls-15" x="1132.86" y="518.4" width="6.83" height="1.55"/><path class="cls-4" d="M1292.29,528.34h19.06a4.87,4.87,0,0,1,4.82,4.17h3.54V515.34h-94v17.16h10.06a4.87,4.87,0,0,1,4.82-4.17h19.06a4.87,4.87,0,0,1,4.82,4.17h22.94A4.87,4.87,0,0,1,1292.29,528.34Z" transform="translate(-34.68 -13.33)"/><rect class="cls-24" x="1275.86" y="505.65" width="3.74" height="3.74"/><rect class="cls-25" x="1268.8" y="505.65" width="3.74" height="3.74"/><rect class="cls-26" x="1261.75" y="505.65" width="3.74" height="3.74"/><rect class="cls-27" x="1254.69" y="505.65" width="3.74" height="3.74"/><rect class="cls-28" x="1224.21" y="505.65" width="3.74" height="3.74"/><rect class="cls-29" x="1217.15" y="505.65" width="3.74" height="3.74"/><rect class="cls-30" x="1210.1" y="505.65" width="3.74" height="3.74"/><rect class="cls-31" x="1203.05" y="505.65" width="3.74" height="3.74"/><circle class="cls-32" cx="1258.43" cy="519.18" r="2.35"/><circle class="cls-15" cx="1258.43" cy="519.18" r="1.18"/><circle class="cls-33" cx="1267.14" cy="519.18" r="2.35"/><circle class="cls-15" cx="1267.14" cy="519.18" r="1.18"/><circle class="cls-34" cx="1275.86" cy="519.18" r="2.35"/><circle class="cls-15" cx="1275.86" cy="519.18" r="1.18"/><circle class="cls-35" cx="1206.78" cy="519.18" r="2.35"/><circle class="cls-15" cx="1206.78" cy="519.18" r="1.18"/><circle class="cls-36" cx="1215.5" cy="519.18" r="2.35"/><circle class="cls-15" cx="1215.5" cy="519.18" r="1.18"/><circle class="cls-37" cx="1224.21" cy="519.18" r="2.35"/><circle class="cls-15" cx="1224.21" cy="519.18" r="1.18"/><rect class="cls-38" x="1282.45" y="515.34" width="4.46" height="17.16" transform="translate(2534.68 1034.52) rotate(180)"/><rect class="cls-39" x="1230.53" y="502.01" width="4.46" height="17.16"/><rect class="cls-40" x="1238.89" y="505.65" width="4.81" height="10.15"/><rect class="cls-15" x="1272.85" y="531.73" width="6.83" height="1.55" transform="translate(2517.84 1051.68) rotate(180)"/><path class="cls-4" d="M1390.29,528.34h19.06a4.87,4.87,0,0,1,4.82,4.17h3.54V515.34h-94v17.16h10.06a4.87,4.87,0,0,1,4.82-4.17h19.06a4.87,4.87,0,0,1,4.82,4.17h22.94A4.87,4.87,0,0,1,1390.29,528.34Z" transform="translate(-34.68 -13.33)"/><rect class="cls-41" x="1373.86" y="505.65" width="3.74" height="3.74"/><rect class="cls-42" x="1366.8" y="505.65" width="3.74" height="3.74"/><rect class="cls-43" x="1359.75" y="505.65" width="3.74" height="3.74"/><rect class="cls-44" x="1352.69" y="505.65" width="3.74" height="3.74"/><rect class="cls-45" x="1322.21" y="505.65" width="3.74" height="3.74"/><rect class="cls-46" x="1315.15" y="505.65" width="3.74" height="3.74"/><rect class="cls-47" x="1308.1" y="505.65" width="3.74" height="3.74"/><rect class="cls-48" x="1301.05" y="505.65" width="3.74" height="3.74"/><circle class="cls-49" cx="1356.43" cy="519.18" r="2.35"/><circle class="cls-15" cx="1356.43" cy="519.18" r="1.18"/><circle class="cls-50" cx="1365.14" cy="519.18" r="2.35"/><circle class="cls-15" cx="1365.14" cy="519.18" r="1.18"/><circle class="cls-51" cx="1373.86" cy="519.18" r="2.35"/><circle class="cls-15" cx="1373.86" cy="519.18" r="1.18"/><circle class="cls-52" cx="1304.78" cy="519.18" r="2.35"/><circle class="cls-15" cx="1304.78" cy="519.18" r="1.18"/><circle class="cls-53" cx="1313.5" cy="519.18" r="2.35"/><circle class="cls-15" cx="1313.5" cy="519.18" r="1.18"/><circle class="cls-54" cx="1322.21" cy="519.18" r="2.35"/><circle class="cls-15" cx="1322.21" cy="519.18" r="1.18"/><rect class="cls-55" x="1380.45" y="515.34" width="4.46" height="17.16" transform="translate(2730.68 1034.52) rotate(180)"/><rect class="cls-56" x="1328.53" y="502.01" width="4.46" height="17.16"/><rect class="cls-57" x="1336.89" y="505.65" width="4.81" height="10.15"/><rect class="cls-15" x="1370.85" y="531.73" width="6.83" height="1.55" transform="translate(2713.84 1051.68) rotate(180)"/><circle class="cls-58" cx="486.63" cy="741.47" r="25"/><circle class="cls-59" cx="485.52" cy="742.71" r="8.82"/><circle class="cls-60" cx="485.38" cy="741.36" r="8.32"/><path class="cls-61" d="M520.06,746.88a7.82,7.82,0,1,1-7.82,7.82,7.82,7.82,0,0,1,7.82-7.82m0-1a8.82,8.82,0,1,0,8.82,8.82,8.82,8.82,0,0,0-8.82-8.82Z" transform="translate(-34.68 -13.33)"/><circle class="cls-62" cx="485.38" cy="741.36" r="7.22"/><path class="cls-63" d="M516.22,752.52l2.11-1.3L520,754l1.72-2.78h2.11v7.19h-2v-4.13L520,757.1h0l-1.82-2.79v4.11h-2Z" transform="translate(-34.68 -13.33)"/><circle class="cls-64" cx="613.17" cy="808.86" r="25"/><circle class="cls-59" cx="612.05" cy="810.1" r="8.82"/><circle class="cls-60" cx="611.91" cy="808.75" r="8.32"/><path class="cls-61" d="M646.59,814.27a7.82,7.82,0,1,1-7.82,7.82,7.82,7.82,0,0,1,7.82-7.82m0-1a8.82,8.82,0,1,0,8.82,8.82,8.82,8.82,0,0,0-8.82-8.82Z" transform="translate(-34.68 -13.33)"/><circle class="cls-65" cx="611.91" cy="808.75" r="7.22"/><path class="cls-63" d="M642.75,819.92l2.11-1.3,1.72,2.78,1.72-2.78h2.11v7.19h-2v-4.13l-1.83,2.81h0l-1.82-2.79v4.11h-2Z" transform="translate(-34.68 -13.33)"/><path class="cls-66" d="M119.86,196.54H89.27a22,22,0,0,1-5.82-.78l-3-.81a1.41,1.41,0,0,1-.55-2.43l2.6-2.23a13.38,13.38,0,0,1,8.71-3.22H137.5l-2.57,2.81A20.41,20.41,0,0,1,119.86,196.54Z" transform="translate(-34.68 -13.33)"/><path class="cls-4" d="M135.39,187.21h-8.23l4.31-5.57A9.48,9.48,0,0,1,139,178h0Z" transform="translate(-34.68 -13.33)"/><polygon class="cls-67" points="49.65 177.86 46.82 177.86 48.1 176.77 50.44 176.77 49.65 177.86"/><circle class="cls-67" cx="57.8" cy="177.43" r="0.6"/><circle class="cls-67" cx="60.59" cy="177.43" r="0.6"/><circle class="cls-67" cx="63.39" cy="177.43" r="0.6"/><circle class="cls-67" cx="66.18" cy="177.43" r="0.6"/><circle class="cls-67" cx="69.96" cy="177.43" r="0.6"/><circle class="cls-67" cx="72.75" cy="177.43" r="0.6"/><circle class="cls-67" cx="75.55" cy="177.43" r="0.6"/><circle class="cls-67" cx="78.34" cy="177.43" r="0.6"/><polygon class="cls-66" points="90.61 187.39 81.46 187.22 63.98 180.12 78.73 180.12 90.61 187.39"/><polyline class="cls-4" points="84.25 187.28 66.68 180.12 63.98 180.12 81.46 187.22"/><polygon class="cls-66" points="104.43 178.72 100.21 178.65 91.69 175.83 98.49 175.83 104.43 178.72"/><polygon class="cls-68" points="324.21 62.32 324.87 55.39 327.85 61.68 324.21 62.32"/><polygon class="cls-68" points="333.44 60.69 334.1 53.77 337.08 60.05 333.44 60.69"/><polygon class="cls-68" points="328.83 61.52 329.41 54.59 332.46 60.84 328.83 61.52"/><path class="cls-69" d="M369.26,61.38l-4.93-28a41.32,41.32,0,0,0-9.61-20.1,41.32,41.32,0,0,0-2.16,22.18l4.93,28Z" transform="translate(-34.68 -13.33)"/><polygon class="cls-4" points="334.9 47.85 322.51 50.03 322.66 58.43 337.63 55.79 334.9 47.85"/><polygon class="cls-66" points="341.89 44.95 334.24 46.3 332.27 35.12 341.89 44.95"/><polygon class="cls-66" points="314.93 49.7 322.58 48.35 320.61 37.17 314.93 49.7"/><circle class="cls-67" cx="357.62" cy="29.78" r="1.4" transform="translate(-34.42 49.22) rotate(-10)"/><circle class="cls-67" cx="358.64" cy="35.52" r="1.4" transform="translate(-35.4 49.48) rotate(-10)"/><circle class="cls-67" cx="359.65" cy="41.26" r="1.4" transform="translate(-36.38 49.75) rotate(-10)"/><path class="cls-4" d="M359.18,19.52a41.38,41.38,0,0,0-4.46-6.18,41.38,41.38,0,0,0-2.07,7.33Z" transform="translate(-34.68 -13.33)"/><g class="cls-70"><path class="cls-71" d="M371.51,77.25l.93,11L369.54,77.6a1,1,0,0,1,1.94-.53A1.07,1.07,0,0,1,371.51,77.25Z" transform="translate(-34.68 -13.33)"/></g><g class="cls-70"><path class="cls-72" d="M362.4,78.86l1.79,15.93-3.76-15.58a1,1,0,1,1,1.95-.47A1.12,1.12,0,0,1,362.4,78.86Z" transform="translate(-34.68 -13.33)"/></g><g class="cls-70"><path class="cls-73" d="M367.45,78l4.86,36.21-7.82-35.68a1.5,1.5,0,1,1,2.93-.64Z" transform="translate(-34.68 -13.33)"/></g><polygon class="cls-74" points="17.08 501.1 42.44 521.1 56.27 515.1 73.94 501.1 17.08 501.1"/><polygon class="cls-15" points="17.08 501.1 33.99 492.1 51.66 492.1 73.94 501.1 17.08 501.1"/><circle class="cls-75" cx="45" cy="470.19" r="45"/><circle class="cls-59" cx="43.88" cy="473.38" r="15.87"/><path class="cls-60" d="M78.3,499.64a15.37,15.37,0,1,1,15.37-15.37A15.39,15.39,0,0,1,78.3,499.64Z" transform="translate(-34.68 -13.33)"/><path class="cls-61" d="M78.3,469.41a14.87,14.87,0,1,1-14.87,14.87A14.89,14.89,0,0,1,78.3,469.41m0-1a15.87,15.87,0,1,0,15.87,15.87A15.87,15.87,0,0,0,78.3,468.41Z" transform="translate(-34.68 -13.33)"/><circle class="cls-76" cx="43.62" cy="470.94" r="13"/><path class="cls-63" d="M71.39,480.37,75.18,478l3.09,5,3.09-5h3.79V491H81.57v-7.43l-3.3,5.07H78.2l-3.28-5V491H71.39Z" transform="translate(-34.68 -13.33)"/><path class="cls-77" d="M655.31,440.56H560V416.79h61.14a36.42,36.42,0,0,1,34.15,23.77Z" transform="translate(-34.68 -13.33)"/><polygon class="cls-77" points="590.1 427.23 525.33 427.23 525.33 378.15 581.29 378.15 590.1 427.23"/><polygon class="cls-78" points="558.99 403.13 580.3 403.13 576.78 382.26 558.99 382.26 558.99 403.13"/><rect class="cls-79" x="529.72" y="382.26" width="23.08" height="20.87"/><circle class="cls-80" cx="544.87" cy="427.22" r="8.8"/><circle class="cls-63" cx="544.87" cy="427.22" r="4.4"/><circle class="cls-80" cx="595.1" cy="427.22" r="8.8"/><circle class="cls-63" cx="595.1" cy="427.22" r="4.4"/><rect class="cls-15" x="607.12" y="418.42" width="13.51" height="8.8"/><rect class="cls-15" x="520.63" y="418.42" width="13.51" height="8.8"/><line class="cls-81" x1="557.71" y1="407.56" x2="557.71" y2="423.41"/><polygon class="cls-61" points="183.36 905.21 123.36 905.21 123.36 860.25 133.25 804.34 183.36 804.34 183.36 905.21"/><polygon class="cls-82" points="155.24 883.37 130.5 883.37 140.39 813.7 155.24 813.7 155.24 883.37"/><rect class="cls-61" x="128.04" y="845.99" width="29.67" height="5.7"/><rect class="cls-83" x="196.61" y="827.03" width="12.53" height="36.79" transform="translate(371.07 1677.52) rotate(180)"/><rect class="cls-61" x="132.22" y="873.59" width="25.82" height="44.96" transform="translate(255.58 1778.8) rotate(180)"/><rect class="cls-15" x="166.17" y="912.86" width="25.82" height="8.11" transform="translate(323.48 1820.49) rotate(180)"/><rect class="cls-61" x="218.04" y="863.72" width="57.12" height="54.82" transform="translate(458.52 1768.93) rotate(180)"/><rect class="cls-84" x="197.18" y="872.15" width="23.29" height="45.49" transform="translate(382.96 1776.44) rotate(180)"/><circle class="cls-80" cx="206.1" cy="906.2" r="27.2"/><circle class="cls-85" cx="206.1" cy="906.2" r="9.89"/><circle class="cls-80" cx="107.1" cy="906.35" r="27.2"/><circle class="cls-15" cx="107.1" cy="906.35" r="9.82"/><circle class="cls-15" cx="206.1" cy="906.2" r="9.82"/><line class="cls-86" x1="191.27" y1="860.38" x2="225.55" y2="860.38"/><line class="cls-86" x1="191.27" y1="873" x2="225.55" y2="873"/><line class="cls-86" x1="191.27" y1="866.69" x2="225.55" y2="866.69"/><path class="cls-15" d="M74.47,926.46a29.34,29.34,0,1,0,0-58.68h-9L42,926.46Z" transform="translate(-34.68 -13.33)"/><path class="cls-87" d="M47.86,914.18l13.65-34.13h13a17.07,17.07,0,0,1,0,34.13Z" transform="translate(-34.68 -13.33)"/><polyline class="cls-88" points="117.76 867.3 100.08 867.3 50.84 905.87 38.64 905.87"/><circle class="cls-85" cx="39.3" cy="905.54" r="2.97"/><line class="cls-89" x1="112.67" y1="900.78" x2="101.52" y2="911.92"/><line class="cls-89" x1="112.67" y1="911.92" x2="101.52" y2="900.78"/><line class="cls-89" x1="211.66" y1="911.92" x2="200.52" y2="900.78"/><line class="cls-89" x1="200.52" y1="911.92" x2="211.66" y2="900.78"/><polyline class="cls-81" points="132.09 814.16 120.63 814.16 120.63 832.56"/><rect class="cls-15" x="273" y="907.62" width="10.74" height="10.96" transform="translate(522.06 1812.86) rotate(180)"/><rect class="cls-90" x="115.52" y="820.91" width="7.06" height="15.65"/><circle class="cls-91" cx="1217.13" cy="924.99" r="117.76"/><circle class="cls-59" cx="1216.14" cy="929.51" r="39.33"/><path class="cls-60" d="M1250.17,974.64A37.83,37.83,0,1,1,1288,936.81,37.87,37.87,0,0,1,1250.17,974.64Z" transform="translate(-34.68 -13.33)"/><path class="cls-61" d="M1250.17,900.48a36.33,36.33,0,1,1-36.33,36.33,36.37,36.37,0,0,1,36.33-36.33m0-3a39.33,39.33,0,1,0,39.33,39.33,39.33,39.33,0,0,0-39.33-39.33Z" transform="translate(-34.68 -13.33)"/><circle class="cls-92" cx="1215.49" cy="923.48" r="30.02"/><path class="cls-63" d="M1233,927.13l9.39-5.8,7.65,12.42,7.65-12.42h9.39v32.07h-8.84V935l-8.18,12.55h-.18l-8.13-12.46v18.33H1233Z" transform="translate(-34.68 -13.33)"/><polygon class="cls-93" points="1294.09 221.85 974.02 221.85 922.17 140.9 1322.91 140.9 1294.09 221.85"/><polygon class="cls-63" points="1320.06 159.12 927.38 159.12 922.17 140.9 1322.91 140.9 1320.06 159.12"/><line class="cls-94" x1="1292.39" y1="177.56" x2="946.75" y2="177.56"/><line class="cls-95" x1="992.01" y1="196.01" x2="956.89" y2="196.01"/><line class="cls-95" x1="1008.75" y1="186.39" x2="964.33" y2="186.39"/><rect class="cls-93" x="1123.69" y="62.43" width="143.82" height="9.53"/><rect class="cls-96" x="1123.69" y="71.96" width="143.82" height="68.8"/><path class="cls-93" d="M1231.26,88.54h0a16.16,16.16,0,0,1,16.16,16.16v36.05a0,0,0,0,1,0,0h-32.33a0,0,0,0,1,0,0V104.71A16.16,16.16,0,0,1,1231.26,88.54Z"/><rect class="cls-97" x="979.39" y="99.24" width="49.5" height="41.51"/><rect class="cls-68" x="1233.47" y="38.08" width="17.81" height="24.16"/><polygon class="cls-63" points="1251.28 41.95 1233.47 41.95 1233.47 17.79 1251.28 27.01 1251.28 41.95"/><line class="cls-98" x1="1102.44" y1="123.6" x2="1102.44" y2="140.61"/><line class="cls-98" x1="1081.7" y1="123.6" x2="1081.7" y2="140.61"/><line class="cls-98" x1="1060.96" y1="123.6" x2="1060.96" y2="140.61"/><line class="cls-98" x1="1040.22" y1="123.6" x2="1040.22" y2="140.61"/><line class="cls-99" x1="1206.11" y1="123.6" x2="1028.89" y2="123.6"/><polyline class="cls-98" points="936.51 140.61 936.51 92.49 957.25 102.86 957.25 140.61"/><line class="cls-99" x1="981.62" y1="123.6" x2="914.81" y2="123.6"/><line class="cls-98" x1="1197.24" y1="45.34" x2="1197.24" y2="62.35"/><line class="cls-98" x1="1176.5" y1="45.34" x2="1176.5" y2="62.35"/><line class="cls-98" x1="1155.76" y1="45.34" x2="1155.76" y2="62.35"/><line class="cls-98" x1="1135.01" y1="45.34" x2="1135.01" y2="62.35"/><line class="cls-99" x1="1221.6" y1="45.34" x2="1123.69" y2="45.34"/><circle class="cls-100" cx="1170.21" cy="97.25" r="7.03"/><circle class="cls-100" cx="1194.39" cy="97.25" r="7.03"/><circle class="cls-68" cx="1231.26" cy="103.16" r="4.61"/><line class="cls-99" x1="1221.6" y1="62.23" x2="1221.6" y2="1.1"/><path class="cls-93" d="M1039.56,104.12a19.7,19.7,0,1,0,19.7,19.7A19.7,19.7,0,0,0,1039.56,104.12Zm0,31.55a11.84,11.84,0,1,1,11.84-11.84A11.84,11.84,0,0,1,1039.56,135.67Z" transform="translate(-34.68 -13.33)"/><path class="cls-63" d="M1055,136l-5.62-5.62a11.9,11.9,0,0,1-3.31,3.31l5.62,5.62A19.8,19.8,0,0,0,1055,136Z" transform="translate(-34.68 -13.33)"/><path class="cls-63" d="M1033,114l-5.62-5.62a19.79,19.79,0,0,0-3.31,3.31l5.62,5.62A11.9,11.9,0,0,1,1033,114Z" transform="translate(-34.68 -13.33)"/><path class="cls-63" d="M1029.69,130.38l-5.62,5.62a19.8,19.8,0,0,0,3.31,3.31l5.62-5.62A11.9,11.9,0,0,1,1029.69,130.38Z" transform="translate(-34.68 -13.33)"/><path class="cls-63" d="M1049.42,117.28l5.62-5.62a19.79,19.79,0,0,0-3.31-3.31l-5.62,5.62A11.9,11.9,0,0,1,1049.42,117.28Z" transform="translate(-34.68 -13.33)"/><rect class="cls-68" x="1123.69" y="84.41" width="30.5" height="25.67"/><polygon class="cls-101" points="943.21 229.26 978.83 210.21 1014.83 217.58 1023.1 210.21 1040.42 216.97 1057.28 214.51 1091.35 219.74 1234.6 224.14 1330.37 224.14 1319.76 245.25 921.07 255.09 943.21 229.26"/></g></g></svg>