<svg id="Layer_1" data-name="Layer 1" xmlns="http://www.w3.org/2000/svg" xmlns:xlink="http://www.w3.org/1999/xlink" viewBox="0 0 27.38 102.36"><defs><style>.cls-1{fill:#865776;}.cls-2{fill:url(#linear-gradient);}.cls-3{fill:#ff5607;}.cls-4{fill:#efefef;}.cls-5{fill:#81c6ce;}.cls-6{opacity:0.6;}.cls-7{fill:url(#linear-gradient-2);}.cls-8{fill:url(#linear-gradient-3);}.cls-9{fill:url(#linear-gradient-4);}</style><linearGradient id="linear-gradient" x1="-65.18" y1="-110.4" x2="-53.23" y2="-110.4" gradientTransform="translate(73.32 135.02) rotate(-0.3)" gradientUnits="userSpaceOnUse"><stop offset="0" stop-color="#ced0c8"/><stop offset="0.86" stop-color="#e3e9d6"/></linearGradient><linearGradient id="linear-gradient-2" x1="18.25" y1="77.84" x2="18.19" y2="64.84" gradientUnits="userSpaceOnUse"><stop offset="0" stop-color="#ffc364" stop-opacity="0.25"/><stop offset="0.12" stop-color="#fdc161" stop-opacity="0.29"/><stop offset="0.31" stop-color="#f8ba58" stop-opacity="0.39"/><stop offset="0.53" stop-color="#efae49" stop-opacity="0.55"/><stop offset="0.78" stop-color="#e39f34" stop-opacity="0.77"/><stop offset="1" stop-color="#d78f20"/></linearGradient><linearGradient id="linear-gradient-3" x1="9.03" y1="82.89" x2="8.94" y2="64.89" gradientUnits="userSpaceOnUse"><stop offset="0" stop-color="#ffc364" stop-opacity="0"/><stop offset="0.1" stop-color="#fec162" stop-opacity="0.03"/><stop offset="0.24" stop-color="#fabc5b" stop-opacity="0.13"/><stop offset="0.42" stop-color="#f4b451" stop-opacity="0.28"/><stop offset="0.62" stop-color="#eba942" stop-opacity="0.49"/><stop offset="0.83" stop-color="#e09b30" stop-opacity="0.76"/><stop offset="1" stop-color="#d78f20"/></linearGradient><linearGradient id="linear-gradient-4" x1="13.76" y1="103.86" x2="13.56" y2="64.36" xlink:href="#linear-gradient-3"/></defs><title>rocket</title><g id="rocket"><polygon class="cls-1" points="7.03 62.13 8.84 55.41 10.72 62.11 7.03 62.13"/><polygon class="cls-1" points="16.4 62.08 18.21 55.37 20.09 62.06 16.4 62.08"/><polygon class="cls-1" points="11.71 62.12 13.46 55.39 15.4 62.07 11.71 62.12"/><path class="cls-2" d="M19.65,49.82,19.5,21.43A41.32,41.32,0,0,0,13.42,0,41.32,41.32,0,0,0,7.56,21.5L7.7,49.88Z"/><polygon class="cls-3" points="20 49.67 7.42 49.73 6.16 58.04 21.36 57.96 20 49.67"/><polygon class="cls-4" points="27.38 47.99 19.61 48.03 19.55 36.67 27.38 47.99"/><polygon class="cls-4" points="0 48.13 7.77 48.09 7.71 36.73 0 48.13"/><circle class="cls-5" cx="13.51" cy="16.7" r="1.4" transform="translate(-0.09 0.07) rotate(-0.3)"/><circle class="cls-5" cx="13.54" cy="22.53" r="1.4" transform="translate(-0.12 0.07) rotate(-0.3)"/><circle class="cls-5" cx="13.57" cy="28.36" r="1.4" transform="translate(-0.15 0.07) rotate(-0.3)"/><path class="cls-3" d="M16.77,6.85A41.38,41.38,0,0,0,13.42,0a41.38,41.38,0,0,0-3.28,6.88Z"/><g class="cls-6"><path class="cls-7" d="M19.19,65.83l-.94,11-1.06-11a1,1,0,1,1,2-.19A1.07,1.07,0,0,1,19.19,65.83Z"/></g><g class="cls-6"><path class="cls-8" d="M9.94,65.88,9,81.89l-1.08-16a1,1,0,0,1,2-.14A1.11,1.11,0,0,1,9.94,65.88Z"/></g><g class="cls-6"><path class="cls-9" d="M15.07,65.86l-1.31,36.51L12.07,65.87a1.5,1.5,0,0,1,3-.14S15.07,65.82,15.07,65.86Z"/></g></g></svg>