<svg xmlns="http://www.w3.org/2000/svg" xmlns:xlink="http://www.w3.org/1999/xlink" viewBox="0 0 415.55 253.99"><defs><style>.cls-1{isolation:isolate;}.cls-2{fill:#ee593a;}.cls-3{fill:#fff;}.cls-10,.cls-4,.cls-5,.cls-9{fill:none;}.cls-11,.cls-4{stroke:#fff;}.cls-10,.cls-11,.cls-4,.cls-5,.cls-9{stroke-miterlimit:10;}.cls-11,.cls-4,.cls-5{stroke-width:2px;}.cls-10,.cls-5{stroke:#865776;}.cls-5{mix-blend-mode:overlay;}.cls-6{fill:url(#linear-gradient);}.cls-7{fill:#ced0c8;}.cls-11,.cls-8{fill:#865776;}.cls-9{stroke:#dee3d2;stroke-width:3px;}.cls-10{stroke-width:4px;}.cls-12{fill:#89ced9;}</style><linearGradient id="linear-gradient" x1="-1052.81" y1="105.26" x2="-908.99" y2="105.26" gradientTransform="translate(1261.68)" gradientUnits="userSpaceOnUse"><stop offset="0.14" stop-color="#e3e9d6"/><stop offset="1" stop-color="#ced0c8"/></linearGradient></defs><title>boat_1</title><g class="cls-1"><g id="Layer_1" data-name="Layer 1"><g id="boat"><polygon class="cls-2" points="379.28 220.75 59.21 220.75 7.35 139.81 408.1 139.81 379.28 220.75"/><polygon class="cls-3" points="405.24 158.02 12.57 158.02 7.35 139.81 408.1 139.81 405.24 158.02"/><line class="cls-4" x1="377.58" y1="176.47" x2="31.93" y2="176.47"/><line class="cls-5" x1="77.2" y1="194.91" x2="42.08" y2="194.91"/><line class="cls-5" x1="93.93" y1="185.3" x2="49.52" y2="185.3"/><rect class="cls-2" x="208.87" y="61.33" width="143.82" height="9.53"/><rect class="cls-6" x="208.87" y="70.86" width="143.82" height="68.8"/><path class="cls-2" d="M316.44,87.45h0a16.16,16.16,0,0,1,16.16,16.16v36.05a0,0,0,0,1,0,0H300.28a0,0,0,0,1,0,0V103.61A16.16,16.16,0,0,1,316.44,87.45Z"/><rect class="cls-7" x="64.58" y="98.15" width="49.5" height="41.51"/><rect class="cls-8" x="318.66" y="36.98" width="17.81" height="24.16"/><polygon class="cls-3" points="336.46 40.85 318.66 40.85 318.66 16.69 336.46 25.92 336.46 40.85"/><line class="cls-9" x1="187.63" y1="122.5" x2="187.63" y2="139.52"/><line class="cls-9" x1="166.89" y1="122.5" x2="166.89" y2="139.52"/><line class="cls-9" x1="146.15" y1="122.5" x2="146.15" y2="139.52"/><line class="cls-9" x1="125.4" y1="122.5" x2="125.4" y2="139.52"/><line class="cls-10" x1="291.3" y1="122.5" x2="114.08" y2="122.5"/><polyline class="cls-9" points="21.7 139.52 21.7 91.39 42.44 101.76 42.44 139.52"/><line class="cls-10" x1="66.8" y1="122.5" y2="122.5"/><line class="cls-9" x1="282.42" y1="44.24" x2="282.42" y2="61.26"/><line class="cls-9" x1="261.68" y1="44.24" x2="261.68" y2="61.26"/><line class="cls-9" x1="240.94" y1="44.24" x2="240.94" y2="61.26"/><line class="cls-9" x1="220.2" y1="44.24" x2="220.2" y2="61.26"/><line class="cls-10" x1="306.79" y1="44.24" x2="208.87" y2="44.24"/><circle class="cls-11" cx="255.39" cy="96.15" r="7.03"/><circle class="cls-11" cx="279.58" cy="96.15" r="7.03"/><circle class="cls-8" cx="316.44" cy="102.06" r="4.61"/><line class="cls-10" x1="306.79" y1="61.13" x2="306.79"/><path class="cls-2" d="M90.06,89.7a19.7,19.7,0,1,0,19.7,19.7A19.7,19.7,0,0,0,90.06,89.7Zm0,31.55A11.84,11.84,0,1,1,101.9,109.4,11.84,11.84,0,0,1,90.06,121.24Z"/><path class="cls-3" d="M105.54,121.57,99.92,116a11.9,11.9,0,0,1-3.31,3.31l5.62,5.62A19.8,19.8,0,0,0,105.54,121.57Z"/><path class="cls-3" d="M83.51,99.54l-5.62-5.62a19.79,19.79,0,0,0-3.31,3.31l5.62,5.62A11.9,11.9,0,0,1,83.51,99.54Z"/><path class="cls-3" d="M80.2,116l-5.62,5.62a19.8,19.8,0,0,0,3.31,3.31l5.62-5.62A11.9,11.9,0,0,1,80.2,116Z"/><path class="cls-3" d="M99.92,102.85l5.62-5.62a19.79,19.79,0,0,0-3.31-3.31l-5.62,5.62A11.9,11.9,0,0,1,99.92,102.85Z"/><rect class="cls-8" x="208.87" y="83.31" width="30.5" height="25.67"/><polygon class="cls-12" points="28.39 228.17 64.01 209.11 100.02 216.49 108.29 209.11 125.61 215.87 142.47 213.41 176.53 218.64 319.78 223.05 415.55 223.05 404.95 244.15 6.25 253.99 28.39 228.17"/></g></g></g></svg>