<svg id="Layer_1" data-name="Layer 1" xmlns="http://www.w3.org/2000/svg" xmlns:xlink="http://www.w3.org/1999/xlink" viewBox="0 0 100 57.87"><defs><style>.cls-1{fill:#38adca;}.cls-2{fill:url(#linear-gradient);}.cls-3{fill:url(#linear-gradient-2);}.cls-4{fill:#666;}.cls-5{fill:#fff;}.cls-6{fill:#e3e9d6;}.cls-7{fill:none;stroke:#7b5157;stroke-miterlimit:10;stroke-width:2px;}</style><linearGradient id="linear-gradient" x1="38.36" y1="14.54" x2="59.68" y2="14.54" gradientUnits="userSpaceOnUse"><stop offset="0" stop-color="#995f64"/><stop offset="0.86" stop-color="#7b5157"/></linearGradient><linearGradient id="linear-gradient-2" x1="9.09" y1="14.54" x2="32.17" y2="14.54" xlink:href="#linear-gradient"/></defs><title>car</title><g id="car"><path class="cls-1" d="M100,49.07H4.71V25.3H65.85A36.42,36.42,0,0,1,100,49.07Z"/><polygon class="cls-1" points="69.47 49.07 4.71 49.07 4.71 0 60.67 0 69.47 49.07"/><polygon class="cls-2" points="38.36 24.98 59.68 24.98 56.16 4.11 38.36 4.11 38.36 24.98"/><rect class="cls-3" x="9.09" y="4.11" width="23.08" height="20.87"/><circle class="cls-4" cx="24.24" cy="49.07" r="8.8"/><circle class="cls-5" cx="24.24" cy="49.07" r="4.4"/><circle class="cls-4" cx="74.47" cy="49.07" r="8.8"/><circle class="cls-5" cx="74.47" cy="49.07" r="4.4"/><rect class="cls-6" x="86.49" y="40.27" width="13.51" height="8.8"/><rect class="cls-6" y="40.27" width="13.51" height="8.8"/><line class="cls-7" x1="37.09" y1="29.41" x2="37.09" y2="45.26"/></g></svg>