<svg id="Layer_1" data-name="Layer 1" xmlns="http://www.w3.org/2000/svg" xmlns:xlink="http://www.w3.org/1999/xlink" viewBox="0 0 235.53 235.53"><defs><style>.cls-1,.cls-5{opacity:0.6;}.cls-1{fill:url(#radial-gradient);}.cls-2{fill:#eba24c;}.cls-3{fill:#ffd266;}.cls-4{fill:#f9b048;}.cls-5{fill:url(#linear-gradient);}.cls-6{fill:#fff;}</style><radialGradient id="radial-gradient" cx="117.76" cy="117.76" r="117.76" gradientUnits="userSpaceOnUse"><stop offset="0" stop-color="#ffc364"/><stop offset="0.05" stop-color="#ffc364" stop-opacity="0.93"/><stop offset="0.26" stop-color="#ffc364" stop-opacity="0.65"/><stop offset="0.45" stop-color="#ffc364" stop-opacity="0.42"/><stop offset="0.63" stop-color="#ffc364" stop-opacity="0.24"/><stop offset="0.78" stop-color="#ffc364" stop-opacity="0.11"/><stop offset="0.91" stop-color="#ffc364" stop-opacity="0.03"/><stop offset="1" stop-color="#ffc364" stop-opacity="0"/></radialGradient><linearGradient id="linear-gradient" x1="91.35" y1="81.42" x2="140.59" y2="150.67" gradientUnits="userSpaceOnUse"><stop offset="0" stop-color="#fff" stop-opacity="0.75"/><stop offset="0.1" stop-color="#fff" stop-opacity="0.64"/><stop offset="0.33" stop-color="#fff" stop-opacity="0.42"/><stop offset="0.55" stop-color="#fff" stop-opacity="0.24"/><stop offset="0.74" stop-color="#fff" stop-opacity="0.11"/><stop offset="0.89" stop-color="#fff" stop-opacity="0.03"/><stop offset="1" stop-color="#fff" stop-opacity="0"/></linearGradient></defs><title>coin</title><g id="coin"><circle class="cls-1" cx="117.76" cy="117.76" r="117.76"/><circle class="cls-2" cx="116.77" cy="122.29" r="39.33"/><path class="cls-3" d="M116.12,154.09A37.83,37.83,0,1,1,154,116.26,37.87,37.87,0,0,1,116.12,154.09Z"/><path class="cls-4" d="M116.12,79.93a36.33,36.33,0,1,1-36.33,36.33,36.37,36.37,0,0,1,36.33-36.33m0-3a39.33,39.33,0,1,0,39.33,39.33,39.33,39.33,0,0,0-39.33-39.33Z"/><circle class="cls-5" cx="116.12" cy="116.26" r="30.02"/><path class="cls-6" d="M99,106.57l9.39-5.8L116,113.19l7.65-12.42h9.39v32.07h-8.84V114.43L116.06,127h-.18l-8.13-12.46v18.33H99Z"/></g></svg>