<svg id="Layer_1" data-name="Layer 1" xmlns="http://www.w3.org/2000/svg" xmlns:xlink="http://www.w3.org/1999/xlink" viewBox="0 0 241.74 129.21"><defs><style>.cls-1{fill:#f9b048;}.cls-2{fill:url(#linear-gradient);}.cls-3{fill:url(#linear-gradient-2);}.cls-4{fill:#e3e9d6;}.cls-5,.cls-9{opacity:0.1;}.cls-5{fill:url(#linear-gradient-3);}.cls-6{fill:#666;}.cls-7{fill:#7b5157;}.cls-10,.cls-11,.cls-12,.cls-8{fill:none;stroke-miterlimit:10;}.cls-12,.cls-8{stroke:#7b5157;}.cls-8{stroke-width:3px;}.cls-9{fill:url(#linear-gradient-4);}.cls-10{stroke:#f9b048;stroke-linecap:round;stroke-width:10px;}.cls-11{stroke:#666;}.cls-11,.cls-12{stroke-width:2px;}.cls-13{fill:url(#linear-gradient-5);}</style><linearGradient id="linear-gradient" x1="123.18" y1="44.2" x2="147.92" y2="44.2" gradientUnits="userSpaceOnUse"><stop offset="0" stop-color="#995f64"/><stop offset="0.86" stop-color="#7b5157"/></linearGradient><linearGradient id="linear-gradient-2" x1="154.6" y1="27.75" x2="167.14" y2="27.75" gradientTransform="translate(321.74 55.51) rotate(-180)" xlink:href="#linear-gradient"/><linearGradient id="linear-gradient-3" x1="155.17" y1="77.22" x2="178.46" y2="77.22" gradientTransform="translate(333.63 154.43) rotate(-180)" gradientUnits="userSpaceOnUse"><stop offset="0.14" stop-color="#7b5157"/><stop offset="1" stop-color="#995f64" stop-opacity="0"/></linearGradient><linearGradient id="linear-gradient-4" x1="5.85" y1="79.45" x2="49.53" y2="79.45" gradientUnits="userSpaceOnUse"><stop offset="0" stop-color="#995f64" stop-opacity="0"/><stop offset="0.86" stop-color="#7b5157"/></linearGradient><linearGradient id="linear-gradient-5" x1="108.2" y1="24.39" x2="115.25" y2="24.39" xlink:href="#linear-gradient"/></defs><title>dozer</title><g id="dozer"><polygon class="cls-1" points="176.03 100.87 116.04 100.87 116.04 55.91 125.93 0 176.03 0 176.03 100.87"/><polygon class="cls-2" points="147.92 79.03 123.18 79.03 133.07 9.36 147.92 9.36 147.92 79.03"/><rect class="cls-1" x="120.71" y="41.65" width="29.67" height="5.7"/><rect class="cls-3" x="154.6" y="9.36" width="12.53" height="36.79" transform="translate(321.74 55.51) rotate(180)"/><rect class="cls-1" x="90.22" y="55.91" width="25.82" height="44.96" transform="translate(206.25 156.79) rotate(180)"/><rect class="cls-4" x="124.17" y="95.18" width="25.82" height="8.11" transform="translate(274.16 198.48) rotate(180)"/><rect class="cls-1" x="176.03" y="46.05" width="57.12" height="54.82" transform="translate(409.19 146.92) rotate(180)"/><rect class="cls-5" x="155.17" y="54.47" width="23.29" height="45.49" transform="translate(333.63 154.43) rotate(180)"/><circle class="cls-6" cx="198.78" cy="101.86" r="27.2"/><circle class="cls-7" cx="198.78" cy="101.86" r="9.89"/><circle class="cls-6" cx="99.77" cy="102.01" r="27.2"/><circle class="cls-4" cx="99.77" cy="102.01" r="9.82"/><circle class="cls-4" cx="198.78" cy="101.86" r="9.82"/><line class="cls-8" x1="183.95" y1="56.04" x2="218.23" y2="56.04"/><line class="cls-8" x1="183.95" y1="68.66" x2="218.23" y2="68.66"/><line class="cls-8" x1="183.95" y1="62.35" x2="218.23" y2="62.35"/><path class="cls-4" d="M32.47,108.78a29.34,29.34,0,1,0,0-58.68h-9L0,108.78Z"/><path class="cls-9" d="M5.85,96.51,19.51,62.38h13a17.07,17.07,0,0,1,0,34.13Z"/><polyline class="cls-10" points="110.43 62.96 92.76 62.96 43.52 101.53 31.32 101.53"/><circle class="cls-7" cx="31.97" cy="101.21" r="2.97"/><line class="cls-11" x1="105.35" y1="96.44" x2="94.2" y2="107.58"/><line class="cls-11" x1="105.35" y1="107.58" x2="94.2" y2="96.44"/><line class="cls-11" x1="204.34" y1="107.58" x2="193.19" y2="96.44"/><line class="cls-11" x1="193.19" y1="107.58" x2="204.34" y2="96.44"/><polyline class="cls-12" points="124.76 9.82 113.31 9.82 113.31 28.23"/><rect class="cls-4" x="231" y="89.94" width="10.74" height="10.96" transform="translate(472.74 190.84) rotate(180)"/><rect class="cls-13" x="108.2" y="16.57" width="7.06" height="15.65"/></g></svg>