<svg id="Layer_1" data-name="Layer 1" xmlns="http://www.w3.org/2000/svg" viewBox="0 0 59.65 22.76"><defs><style>.cls-1{fill:#efefef;}.cls-2{fill:#ff5607;}.cls-3{fill:#81c6ce;}</style></defs><title>plane</title><g id="plane"><path class="cls-1" d="M40.4,18.58H9.81A22,22,0,0,1,4,17.8L1,17a1.41,1.41,0,0,1-.55-2.43l2.6-2.23A13.38,13.38,0,0,1,11.8,9.11H58l-2.57,2.81A20.41,20.41,0,0,1,40.4,18.58Z"/><path class="cls-2" d="M55.93,9.24H47.7L52,3.68A9.48,9.48,0,0,1,59.51,0h0Z"/><polygon class="cls-3" points="4.87 13.23 2.05 13.23 3.32 12.14 5.67 12.14 4.87 13.23"/><circle class="cls-3" cx="13.03" cy="12.8" r="0.6"/><circle class="cls-3" cx="15.82" cy="12.8" r="0.6"/><circle class="cls-3" cx="18.61" cy="12.8" r="0.6"/><circle class="cls-3" cx="21.4" cy="12.8" r="0.6"/><circle class="cls-3" cx="25.19" cy="12.8" r="0.6"/><circle class="cls-3" cx="27.98" cy="12.8" r="0.6"/><circle class="cls-3" cx="30.77" cy="12.8" r="0.6"/><circle class="cls-3" cx="33.56" cy="12.8" r="0.6"/><polygon class="cls-1" points="45.83 22.76 36.68 22.59 19.21 15.49 33.95 15.49 45.83 22.76"/><polyline class="cls-2" points="39.47 22.65 21.9 15.49 19.21 15.49 36.68 22.59"/><polygon class="cls-1" points="59.65 14.1 55.43 14.02 46.92 11.2 53.72 11.2 59.65 14.1"/></g></svg>